<?xml version="1.0" encoding="UTF-8" ?>
<!DOCTYPE svg PUBLIC "-//W3C//DTD SVG 1.1//EN" "http://www.w3.org/Graphics/SVG/1.1/DTD/svg11.dtd">
<svg width="520pt" height="80pt" viewBox="0 0 520 80" version="1.1" xmlns="http://www.w3.org/2000/svg">
<path fill="#1b1400" d=" M 0.00 0.00 L 520.00 0.00 L 520.00 80.00 L 0.00 80.00 L 0.00 0.00 Z" />
<path fill="#0bab20" d=" M 14.21 10.32 C 14.02 5.55 18.30 3.14 22.05 1.48 C 22.41 1.77 23.13 2.33 23.48 2.62 C 23.11 3.11 22.35 4.08 21.98 4.57 C 22.57 4.48 23.75 4.28 24.34 4.19 L 24.75 4.87 C 24.47 4.80 23.92 4.66 23.64 4.60 C 23.66 6.51 23.65 8.42 23.63 10.33 C 25.18 10.18 26.73 10.03 28.28 9.87 C 28.74 11.07 29.20 12.26 29.66 13.46 C 30.14 13.52 31.11 13.64 31.59 13.70 C 32.36 12.92 33.13 12.13 33.90 11.35 C 35.52 12.45 37.25 13.40 39.15 13.90 C 39.50 12.68 39.85 11.47 40.19 10.25 C 42.07 10.22 43.95 10.18 45.83 10.12 C 45.06 8.36 44.26 6.62 43.41 4.90 C 44.12 5.00 45.52 5.19 46.22 5.29 C 47.53 5.36 48.13 4.68 48.02 3.25 C 49.10 4.19 50.11 5.21 51.15 6.20 L 51.76 6.79 L 50.65 7.83 C 50.08 8.36 49.53 8.91 49.01 9.48 C 46.42 13.48 42.13 16.42 37.27 16.57 C 29.17 16.74 21.61 13.21 14.21 10.32 Z" />
<path fill="#59800c" d=" M 44.07 1.94 C 45.92 1.60 47.80 1.47 49.68 1.59 C 50.89 3.31 52.09 5.04 53.27 6.78 C 52.74 6.63 51.68 6.34 51.15 6.20 C 50.11 5.21 49.10 4.19 48.02 3.25 L 47.49 2.85 C 47.17 3.46 46.54 4.68 46.22 5.29 C 45.52 5.19 44.12 5.00 43.41 4.90 L 43.64 3.97 L 43.79 3.29 L 44.07 1.94 Z" />
<path fill="#422700" d=" M 66.48 0.93 C 67.17 1.12 68.56 1.50 69.25 1.69 C 65.71 5.68 60.61 7.64 55.51 8.73 C 55.03 8.84 54.09 9.06 53.61 9.17 C 53.24 9.27 52.48 9.47 52.11 9.57 C 50.16 14.37 46.98 18.87 42.22 21.21 C 37.37 23.86 31.65 23.75 26.32 23.20 L 25.19 23.12 L 25.34 22.20 C 31.06 21.81 37.24 22.54 42.32 19.32 C 45.13 17.46 48.91 15.41 49.06 11.62 C 49.05 11.09 49.02 10.02 49.01 9.48 C 49.53 8.91 50.08 8.36 50.65 7.83 C 55.98 6.05 63.38 6.60 66.48 0.93 Z" />
<path fill="#d0e8e2" d=" M 69.25 1.69 C 69.49 1.54 69.96 1.26 70.19 1.12 C 70.28 2.06 70.44 3.94 70.52 4.87 L 71.52 5.11 C 74.29 6.49 75.43 2.93 77.13 1.42 C 77.50 2.33 78.23 4.14 78.60 5.05 C 76.21 9.07 72.73 12.25 69.02 15.02 C 65.28 12.65 63.20 17.23 61.10 19.47 C 61.08 20.42 61.06 21.37 61.08 22.33 L 61.10 22.78 C 61.67 23.23 62.79 24.11 63.35 24.55 C 61.44 27.56 59.36 30.46 56.94 33.07 C 56.68 33.40 56.15 34.05 55.89 34.37 C 55.49 34.42 54.69 34.51 54.29 34.56 C 51.73 32.62 48.64 31.32 45.38 31.44 C 45.03 31.08 44.32 30.37 43.96 30.01 C 43.37 30.71 42.77 31.42 42.18 32.12 C 39.63 33.19 38.05 35.33 36.72 37.64 C 32.51 40.10 30.35 34.76 26.98 33.32 C 24.22 33.66 25.70 36.43 26.21 38.06 L 26.78 39.73 C 24.67 39.21 22.48 38.98 20.43 39.88 C 22.16 40.57 23.99 40.82 25.85 40.68 C 25.72 41.65 25.48 43.59 25.35 44.56 L 24.14 45.04 C 22.27 43.08 20.08 41.50 17.69 40.24 L 18.71 38.62 L 19.40 37.89 C 20.24 37.59 21.07 37.29 21.91 36.99 C 22.56 35.64 23.68 34.65 24.82 33.71 C 22.27 34.79 20.72 37.39 17.99 38.10 C 16.33 38.15 15.37 36.61 14.20 35.70 C 20.11 34.23 26.70 30.14 26.32 23.20 C 31.65 23.75 37.37 23.86 42.22 21.21 C 46.98 18.87 50.16 14.37 52.11 9.57 C 52.48 9.47 53.24 9.27 53.61 9.17 C 54.45 10.78 55.23 12.43 56.24 13.94 C 54.73 15.90 52.74 17.71 52.22 20.22 C 51.96 22.73 53.75 24.77 55.12 26.65 C 57.34 25.12 59.18 23.14 60.77 20.97 C 60.16 18.90 59.41 16.84 57.98 15.17 C 56.98 13.10 56.24 10.91 55.51 8.73 C 60.61 7.64 65.71 5.68 69.25 1.69 Z" />
<path fill="#a18c21" d=" M 74.34 0.95 C 76.19 1.24 78.74 0.33 79.85 2.35 C 81.33 4.75 83.36 7.09 86.21 7.79 C 88.41 8.36 90.36 6.93 92.22 6.01 C 91.90 4.33 91.57 2.66 91.24 0.98 C 94.90 1.00 98.57 1.01 102.24 0.97 C 99.08 3.57 99.28 9.08 94.64 9.88 C 95.60 9.19 96.54 8.45 97.47 7.72 C 98.17 5.80 98.90 3.89 99.66 2.00 C 97.43 2.06 95.20 2.11 92.97 2.15 C 93.01 3.86 93.05 5.58 93.10 7.29 C 90.87 8.71 88.31 9.28 85.69 9.34 C 85.78 9.75 85.97 10.58 86.07 11.00 C 84.22 8.76 82.01 6.89 79.63 5.24 C 79.58 4.93 79.47 4.30 79.41 3.98 C 79.21 4.25 78.80 4.79 78.60 5.05 C 78.23 4.14 77.50 2.33 77.13 1.42 C 75.43 2.93 74.29 6.49 71.52 5.11 C 71.55 4.41 71.62 3.02 71.65 2.32 C 72.53 3.23 73.47 4.34 74.93 3.87 C 74.78 3.14 74.49 1.68 74.34 0.95 Z" />
<path fill="#000001" d=" M 79.68 1.12 C 83.53 0.95 87.38 0.92 91.24 0.98 C 91.57 2.66 91.90 4.33 92.22 6.01 C 90.36 6.93 88.41 8.36 86.21 7.79 C 83.36 7.09 81.33 4.75 79.85 2.35 L 79.68 1.12 Z" />
<path fill="#fcfaf8" d=" M 102.24 0.97 C 208.37 1.08 314.50 0.90 420.63 1.06 C 422.06 3.32 423.45 5.64 424.23 8.22 C 425.17 8.76 426.11 9.30 427.10 9.77 L 427.64 9.99 C 430.11 10.84 432.34 12.25 434.74 13.28 C 434.93 13.02 435.31 12.51 435.50 12.26 L 436.23 11.26 C 438.13 8.63 441.03 7.04 443.33 4.80 C 444.36 5.95 444.89 7.40 445.38 8.83 C 448.06 10.88 450.76 13.00 452.67 15.83 C 451.97 16.06 450.57 16.51 449.87 16.74 C 448.36 17.11 446.13 17.67 446.14 19.60 C 446.06 21.08 446.11 22.58 446.32 24.06 C 447.60 24.59 448.90 25.07 450.17 25.63 C 451.78 26.32 453.31 27.32 455.08 27.64 C 456.98 27.74 457.80 25.89 458.80 24.63 C 461.22 28.46 463.68 32.37 467.31 35.19 C 466.08 36.32 464.87 37.47 463.66 38.61 C 464.24 40.67 465.73 42.20 467.30 43.57 C 463.01 46.89 460.58 51.86 456.84 55.69 C 457.13 54.72 457.70 52.78 457.99 51.81 C 454.24 49.85 451.10 53.40 447.46 53.74 C 446.82 55.55 446.45 57.44 446.59 59.37 C 446.96 60.04 447.72 61.39 448.09 62.07 C 448.86 61.98 450.39 61.80 451.15 61.71 L 451.64 61.91 L 452.51 62.50 C 451.17 65.88 447.98 67.86 445.32 70.10 C 445.10 72.54 443.11 73.89 441.36 75.27 C 437.92 73.75 436.85 69.51 433.15 68.44 C 432.71 69.04 431.82 70.25 431.37 70.85 C 429.01 71.56 426.67 72.37 424.51 73.59 C 424.10 75.09 423.68 76.59 423.27 78.08 L 423.15 78.52 C 421.77 78.78 420.38 79.02 418.98 79.01 C 314.99 78.99 211.00 78.99 107.01 79.01 C 104.61 78.86 102.03 79.45 99.76 78.45 C 98.94 77.23 98.87 75.71 98.53 74.32 L 98.14 74.00 C 95.51 71.13 90.91 71.78 88.52 68.66 L 88.28 68.81 C 85.47 70.28 84.31 73.64 81.34 74.97 C 79.41 73.99 77.97 72.49 77.60 70.32 C 74.87 68.35 72.44 66.02 70.30 63.42 C 71.98 62.69 73.71 62.08 75.34 61.25 C 76.33 59.21 75.60 56.90 75.42 54.76 C 71.54 54.18 68.22 50.18 64.15 52.00 C 64.36 52.57 64.76 53.71 64.96 54.28 L 65.22 55.07 L 64.11 57.00 C 64.09 55.84 64.09 54.69 64.11 53.53 C 61.24 50.11 58.89 46.20 55.27 43.48 C 56.48 42.08 57.73 40.71 58.98 39.34 C 57.87 37.74 56.14 36.42 55.89 34.37 L 56.52 34.82 C 56.83 34.50 57.44 33.88 57.75 33.57 C 60.25 31.43 62.07 28.67 63.91 25.97 C 65.80 27.01 67.92 27.32 70.05 27.28 C 70.41 26.82 71.12 25.90 71.48 25.45 C 73.05 24.99 74.62 24.52 76.19 24.04 L 75.93 22.87 C 76.26 21.62 76.30 20.38 76.04 19.13 L 75.78 17.99 C 74.43 16.52 72.40 16.61 70.58 16.38 C 73.12 12.22 77.99 10.05 79.63 5.24 C 82.01 6.89 84.22 8.76 86.07 11.00 C 86.40 11.34 87.07 12.02 87.40 12.37 C 87.75 12.67 88.44 13.28 88.78 13.58 C 89.18 13.01 89.96 11.87 90.35 11.30 C 91.40 10.96 92.46 10.62 93.51 10.27 C 93.79 10.17 94.36 9.98 94.64 9.88 C 99.28 9.08 99.08 3.57 102.24 0.97 Z" />
<path fill="#b29a1d" d=" M 420.63 1.06 C 424.11 1.33 427.61 1.21 431.09 0.99 C 430.77 2.78 430.47 4.57 430.20 6.37 C 431.72 7.13 433.22 8.28 435.04 8.00 C 439.07 7.94 441.14 3.94 443.60 1.37 C 444.14 1.33 445.21 1.25 445.75 1.21 C 445.34 1.81 444.54 3.01 444.14 3.60 C 443.87 4.01 443.60 4.41 443.33 4.80 C 441.03 7.04 438.13 8.63 436.23 11.26 C 436.40 10.76 436.74 9.77 436.92 9.28 C 434.66 8.99 431.90 9.62 430.14 7.79 C 428.91 6.36 429.50 4.28 429.25 2.57 C 427.04 2.46 424.84 2.34 422.63 2.22 C 423.84 4.87 424.69 7.91 427.10 9.77 C 426.11 9.30 425.17 8.76 424.23 8.22 C 423.45 5.64 422.06 3.32 420.63 1.06 Z" />
<path fill="#000001" d=" M 431.09 0.99 C 435.26 0.94 439.45 0.80 443.60 1.37 C 441.14 3.94 439.07 7.94 435.04 8.00 C 433.22 8.28 431.72 7.13 430.20 6.37 C 430.47 4.57 430.77 2.78 431.09 0.99 Z" />
<path fill="#d0e8e2" d=" M 445.75 1.21 C 445.99 1.10 446.48 0.86 446.73 0.75 C 446.48 3.09 448.13 6.72 450.94 5.06 C 452.93 4.71 451.51 -0.32 453.61 1.89 C 456.66 6.32 462.13 7.60 466.94 9.18 C 466.52 10.20 465.70 12.22 465.29 13.24 C 465.77 13.15 466.72 12.96 467.20 12.87 C 466.86 10.11 470.02 8.00 471.16 11.28 C 474.77 20.64 486.10 25.75 495.55 22.73 L 495.71 22.69 C 496.16 25.46 496.77 28.41 498.82 30.48 C 501.08 33.35 504.78 34.34 508.07 35.46 C 507.37 36.82 505.89 37.46 504.80 38.45 C 501.77 37.63 500.66 34.08 497.38 33.87 C 496.82 33.69 495.70 33.33 495.14 33.14 C 494.86 33.37 494.30 33.81 494.02 34.04 C 492.33 35.41 490.91 37.11 489.06 38.27 C 487.62 38.35 485.96 38.12 485.25 36.70 C 483.62 34.18 481.14 32.44 478.92 30.49 C 475.17 31.45 471.34 32.27 468.00 34.32 C 465.01 31.31 462.24 28.06 460.03 24.43 L 460.36 23.31 C 461.11 22.79 461.87 22.28 462.62 21.75 C 463.65 23.46 464.67 25.77 466.95 26.01 C 469.54 25.53 470.18 22.24 470.01 20.01 C 470.12 16.97 467.17 15.24 464.95 13.76 C 463.77 15.87 462.69 18.04 461.66 20.22 C 461.18 20.62 460.24 21.42 459.77 21.82 C 459.86 21.42 460.03 20.61 460.12 20.21 C 461.38 19.39 461.27 18.75 459.78 18.30 C 458.93 17.16 458.65 15.30 457.20 14.78 C 452.33 15.38 449.92 10.32 446.34 7.95 C 445.67 6.46 444.88 5.05 444.14 3.60 C 444.54 3.01 445.34 1.81 445.75 1.21 Z" />
<path fill="#705114" d=" M 453.61 1.89 C 454.54 1.51 455.38 1.58 456.15 2.09 C 456.43 2.29 457.00 2.68 457.29 2.88 C 459.44 6.75 464.50 6.00 467.65 8.46 C 468.47 8.11 469.30 7.75 470.13 7.39 C 471.37 8.50 472.57 9.64 473.78 10.80 C 472.90 10.96 472.03 11.12 471.16 11.28 C 470.02 8.00 466.86 10.11 467.20 12.87 C 466.72 12.96 465.77 13.15 465.29 13.24 C 465.70 12.22 466.52 10.20 466.94 9.18 C 462.13 7.60 456.66 6.32 453.61 1.89 Z" />
<path fill="#0ea61a" d=" M 456.15 2.09 C 462.74 0.71 469.59 1.65 476.28 1.58 L 475.44 2.33 C 475.33 2.41 475.12 2.57 475.02 2.65 C 474.73 2.91 474.17 3.42 473.88 3.67 C 472.91 4.70 471.92 5.72 470.95 6.75 C 466.12 6.78 461.69 4.61 457.29 2.88 C 457.00 2.68 456.43 2.29 456.15 2.09 Z" />
<path fill="#11b524" d=" M 508.06 1.44 C 511.69 1.41 515.32 1.37 518.95 1.29 C 518.78 2.56 519.29 4.13 518.30 5.14 C 515.81 6.81 513.00 7.95 510.28 9.18 C 511.21 6.20 510.15 3.56 508.06 1.44 Z" />
<path fill="#0bb022" d=" M 0.77 1.59 C 5.12 1.53 9.48 1.53 13.84 1.46 C 13.12 2.68 12.40 3.91 11.67 5.13 C 11.70 6.42 11.73 7.70 11.76 8.99 C 8.00 6.89 2.39 6.03 0.77 1.59 Z" />
<path fill="#bfa43d" d=" M 23.48 2.62 C 25.41 2.17 27.38 1.95 29.34 1.75 C 29.76 2.47 30.61 3.91 31.03 4.63 C 30.07 4.48 28.16 4.19 27.20 4.04 C 26.21 3.24 25.25 3.29 24.34 4.19 C 23.75 4.28 22.57 4.48 21.98 4.57 C 22.35 4.08 23.11 3.11 23.48 2.62 Z" />
<path fill="#705114" d=" M 29.34 1.75 C 30.85 2.04 31.16 3.48 31.60 4.73 C 32.05 4.69 32.96 4.63 33.41 4.59 C 33.93 4.57 34.98 4.52 35.50 4.50 C 35.94 4.68 36.82 5.03 37.26 5.20 C 37.61 4.14 37.95 3.08 38.29 2.02 C 40.22 1.99 42.14 1.99 44.07 1.94 L 43.79 3.29 C 43.02 2.00 39.91 3.21 41.90 4.24 C 42.34 4.17 43.21 4.04 43.64 3.97 L 43.41 4.90 C 43.04 5.28 42.29 6.04 41.91 6.42 C 40.68 5.91 39.40 5.73 38.09 5.88 C 38.41 6.44 39.05 7.57 39.38 8.13 C 39.02 9.78 38.66 11.43 38.32 13.08 C 38.99 10.14 37.27 8.01 35.02 6.48 C 34.87 7.13 34.55 8.43 34.40 9.07 C 34.08 9.40 33.45 10.06 33.13 10.39 C 32.80 9.26 32.34 8.18 31.75 7.16 C 31.10 8.19 30.57 9.29 30.18 10.43 L 29.68 9.37 C 27.79 9.31 25.91 9.35 24.02 9.34 C 24.49 8.78 25.43 7.66 25.90 7.10 L 25.02 9.29 C 27.62 8.88 29.76 7.61 30.83 5.16 C 29.66 5.28 28.48 5.39 27.31 5.50 C 26.89 5.40 26.06 5.20 25.64 5.09 C 26.03 4.83 26.81 4.30 27.20 4.04 C 28.16 4.19 30.07 4.48 31.03 4.63 C 30.61 3.91 29.76 2.47 29.34 1.75 Z" />
<path fill="#936c16" d=" M 33.41 4.59 C 29.82 1.96 35.10 1.67 37.06 2.36 C 36.67 2.89 35.89 3.96 35.50 4.50 C 34.98 4.52 33.93 4.57 33.41 4.59 Z" />
<path fill="#07a91d" d=" M 49.68 1.59 C 54.71 1.66 59.73 1.57 64.76 1.60 C 62.38 5.18 57.06 5.15 53.27 6.78 C 52.09 5.04 50.89 3.31 49.68 1.59 Z" />
<path fill="#422700" d=" M 92.97 2.15 C 95.20 2.11 97.43 2.06 99.66 2.00 C 98.90 3.89 98.17 5.80 97.47 7.72 C 96.54 8.45 95.60 9.19 94.64 9.88 C 94.36 9.98 93.79 10.17 93.51 10.27 C 92.70 10.35 91.09 10.51 90.28 10.59 C 89.32 11.19 88.37 11.80 87.40 12.37 C 87.07 12.02 86.40 11.34 86.07 11.00 C 85.97 10.58 85.78 9.75 85.69 9.34 C 88.31 9.28 90.87 8.71 93.10 7.29 C 93.05 5.58 93.01 3.86 92.97 2.15 Z" />
<path fill="#352200" d=" M 422.63 2.22 C 424.84 2.34 427.04 2.46 429.25 2.57 C 429.50 4.28 428.91 6.36 430.14 7.79 C 431.90 9.62 434.66 8.99 436.92 9.28 C 436.74 9.77 436.40 10.76 436.23 11.26 L 435.50 12.26 C 432.96 11.24 430.36 10.38 427.64 9.99 L 427.10 9.77 C 424.69 7.91 423.84 4.87 422.63 2.22 Z" />
<path fill="#948420" d=" M 475.02 2.65 C 475.12 2.57 475.33 2.41 475.44 2.33 C 476.39 2.33 478.31 2.33 479.26 2.33 C 478.69 2.65 477.53 3.28 476.95 3.59 C 479.08 4.50 481.41 4.48 483.69 4.37 C 484.32 4.87 485.58 5.86 486.21 6.36 C 484.64 6.17 483.09 5.97 481.54 5.77 C 479.98 5.44 478.44 5.01 476.86 4.78 L 476.18 4.69 C 475.89 4.18 475.31 3.16 475.02 2.65 Z" />
<path fill="#d9c475" d=" M 479.26 2.33 C 481.08 1.62 483.02 2.13 484.82 2.63 L 483.69 4.37 C 481.41 4.48 479.08 4.50 476.95 3.59 C 477.53 3.28 478.69 2.65 479.26 2.33 Z" />
<path fill="#bd8829" d=" M 487.07 2.24 C 488.45 1.07 490.58 3.32 488.84 4.37 C 487.50 5.51 485.41 3.28 487.07 2.24 Z" />
<path fill="#d7c76b" d=" M 491.12 2.60 C 492.94 2.18 494.85 1.65 496.73 2.11 C 497.65 2.71 498.57 3.34 499.48 3.98 C 497.00 4.21 494.52 4.31 492.03 4.37 L 491.12 2.60 Z" />
<path fill="#7d771b" d=" M 496.73 2.11 C 500.11 2.16 504.53 1.66 506.72 4.84 C 505.16 4.39 503.62 3.89 502.12 3.30 C 501.05 2.33 499.06 3.33 499.89 4.79 L 499.01 4.96 C 497.52 5.18 496.03 5.41 494.54 5.42 C 493.96 5.38 492.81 5.31 492.23 5.27 C 492.42 5.90 492.78 7.17 492.96 7.80 L 492.19 8.01 C 491.10 7.49 490.02 6.94 488.96 6.36 L 488.49 6.10 C 489.64 5.50 490.75 4.70 492.03 4.37 C 494.52 4.31 497.00 4.21 499.48 3.98 C 498.57 3.34 497.65 2.71 496.73 2.11 Z" />
<path fill="#f1d88f" d=" M 24.34 4.19 C 25.25 3.29 26.21 3.24 27.20 4.04 C 26.81 4.30 26.03 4.83 25.64 5.09 L 24.75 4.87 L 24.34 4.19 Z" />
<path fill="#f9eaa7" d=" M 41.90 4.24 C 39.91 3.21 43.02 2.00 43.79 3.29 L 43.64 3.97 C 43.21 4.04 42.34 4.17 41.90 4.24 Z" />
<path fill="#112e00" d=" M 47.49 2.85 L 48.02 3.25 C 48.13 4.68 47.53 5.36 46.22 5.29 C 46.54 4.68 47.17 3.46 47.49 2.85 Z" />
<path fill="#1b1400" d=" M 443.33 4.80 C 443.60 4.41 443.87 4.01 444.14 3.60 C 444.88 5.05 445.67 6.46 446.34 7.95 C 449.92 10.32 452.33 15.38 457.20 14.78 C 455.66 15.03 454.15 15.37 452.67 15.83 C 450.76 13.00 448.06 10.88 445.38 8.83 C 444.89 7.40 444.36 5.95 443.33 4.80 Z" />
<path fill="#0a4101" d=" M 473.88 3.67 C 474.17 3.42 474.73 2.91 475.02 2.65 C 475.31 3.16 475.89 4.18 476.18 4.69 C 475.61 4.44 474.46 3.93 473.88 3.67 Z" />
<path fill="#134600" d=" M 499.89 4.79 C 499.06 3.33 501.05 2.33 502.12 3.30 C 501.57 3.68 500.45 4.42 499.89 4.79 Z" />
<path fill="#1b1400" d=" M 79.41 3.98 C 79.47 4.30 79.58 4.93 79.63 5.24 C 77.99 10.05 73.12 12.22 70.58 16.38 C 70.03 15.97 69.55 15.47 69.02 15.02 C 72.73 12.25 76.21 9.07 78.60 5.05 C 78.80 4.79 79.21 4.25 79.41 3.98 Z" />
<path fill="#0bab20" d=" M 470.95 6.75 C 471.92 5.72 472.91 4.70 473.88 3.67 C 474.46 3.93 475.61 4.44 476.18 4.69 L 476.86 4.78 C 477.25 5.24 478.03 6.15 478.42 6.61 C 477.67 7.80 477.27 9.13 477.00 10.50 C 478.59 10.40 480.19 10.25 481.79 10.33 C 482.45 11.37 483.00 12.48 483.58 13.58 C 484.11 13.60 485.19 13.64 485.72 13.67 C 486.47 12.78 487.23 11.89 487.99 11.01 C 489.19 12.33 490.47 13.78 492.42 13.76 C 492.95 12.48 493.45 11.19 494.11 9.97 C 495.53 8.83 497.40 11.26 498.75 10.00 C 498.91 8.39 497.49 6.18 499.01 4.96 L 499.89 4.79 C 500.45 4.42 501.57 3.68 502.12 3.30 C 503.62 3.89 505.16 4.39 506.72 4.84 L 506.63 5.25 C 505.95 7.14 506.23 9.10 506.87 10.95 C 498.06 13.77 488.40 19.47 479.18 14.89 C 475.34 13.33 474.08 9.09 470.95 6.75 Z" />
<path fill="#1b1400" d=" M 23.64 4.60 C 23.92 4.66 24.47 4.80 24.75 4.87 L 25.64 5.09 C 26.06 5.20 26.89 5.40 27.31 5.50 C 26.96 5.90 26.25 6.70 25.90 7.10 C 25.43 7.66 24.49 8.78 24.02 9.34 C 25.91 9.35 27.79 9.31 29.68 9.37 L 30.18 10.43 L 30.42 10.99 C 30.68 12.61 31.26 12.73 32.16 11.35 C 32.40 11.11 32.89 10.63 33.13 10.39 C 33.45 10.06 34.08 9.40 34.40 9.07 C 35.54 10.57 36.90 11.86 38.32 13.08 C 38.66 11.43 39.02 9.78 39.38 8.13 L 40.28 8.48 C 41.15 8.96 42.07 9.24 43.05 9.32 C 44.72 8.92 43.19 7.24 42.37 6.82 L 41.91 6.42 C 42.29 6.04 43.04 5.28 43.41 4.90 C 44.26 6.62 45.06 8.36 45.83 10.12 C 43.95 10.18 42.07 10.22 40.19 10.25 C 39.85 11.47 39.50 12.68 39.15 13.90 C 37.25 13.40 35.52 12.45 33.90 11.35 C 33.13 12.13 32.36 12.92 31.59 13.70 C 31.11 13.64 30.14 13.52 29.66 13.46 C 29.20 12.26 28.74 11.07 28.28 9.87 C 26.73 10.03 25.18 10.18 23.63 10.33 C 23.65 8.42 23.66 6.51 23.64 4.60 Z" />
<path fill="#e3bb73" d=" M 27.31 5.50 C 28.48 5.39 29.66 5.28 30.83 5.16 C 29.76 7.61 27.62 8.88 25.02 9.29 L 25.90 7.10 C 26.25 6.70 26.96 5.90 27.31 5.50 Z" />
<path fill="#0bab20" d=" M 1.01 5.37 C 5.69 8.57 10.92 10.77 15.86 13.50 C 15.60 14.38 15.06 16.14 14.79 17.02 C 16.53 18.67 18.82 19.70 20.27 21.65 C 23.92 26.06 19.21 33.27 14.15 33.49 C 11.02 31.44 7.62 29.12 6.59 25.29 C 7.74 25.43 10.05 25.69 11.20 25.83 C 9.50 23.41 7.33 21.13 7.18 18.01 C 8.54 16.39 9.25 14.31 9.13 12.20 C 8.91 12.29 8.48 12.48 8.26 12.57 C 6.16 13.28 4.27 14.76 3.52 16.91 C 3.31 19.00 4.43 20.92 5.00 22.88 C 4.29 24.54 2.99 26.20 3.55 28.12 C 5.03 30.91 7.96 32.37 10.19 34.46 C 10.52 34.70 11.18 35.18 11.52 35.43 C 10.28 37.45 8.81 39.41 6.52 40.30 C 9.32 41.52 13.10 46.33 8.75 48.03 C 8.26 47.67 7.27 46.94 6.78 46.57 C 5.50 46.68 4.22 46.78 2.94 46.89 C 3.54 41.99 4.01 36.83 1.33 32.42 C 0.57 23.47 1.30 14.37 1.01 5.37 Z" />
<path fill="#d5bd75" d=" M 38.09 5.88 C 39.40 5.73 40.68 5.91 41.91 6.42 L 42.37 6.82 C 41.85 7.23 40.80 8.07 40.28 8.48 L 39.38 8.13 C 39.05 7.57 38.41 6.44 38.09 5.88 Z" />
<path fill="#dcb866" d=" M 479.26 7.57 C 479.83 7.12 480.97 6.22 481.54 5.77 C 483.09 5.97 484.64 6.17 486.21 6.36 C 485.17 7.37 483.92 7.94 482.45 8.07 C 481.38 7.92 480.32 7.75 479.26 7.57 Z" />
<path fill="#d0b44a" d=" M 492.23 5.27 C 492.81 5.31 493.96 5.38 494.54 5.42 C 496.13 6.28 498.07 7.60 497.40 9.70 C 495.90 9.11 494.30 8.71 492.96 7.80 C 492.78 7.17 492.42 5.90 492.23 5.27 Z" />
<path fill="#18ac2c" d=" M 506.87 10.95 C 506.23 9.10 505.95 7.14 506.63 5.25 C 508.03 6.79 508.50 9.37 506.87 10.95 Z" />
<path fill="#e0d082" d=" M 30.18 10.43 C 30.57 9.29 31.10 8.19 31.75 7.16 C 32.34 8.18 32.80 9.26 33.13 10.39 C 32.89 10.63 32.40 11.11 32.16 11.35 C 31.73 11.26 30.86 11.08 30.42 10.99 L 30.18 10.43 Z" />
<path fill="#d6c26c" d=" M 35.02 6.48 C 37.27 8.01 38.99 10.14 38.32 13.08 C 36.90 11.86 35.54 10.57 34.40 9.07 C 34.55 8.43 34.87 7.13 35.02 6.48 Z" />
<path fill="#c4a428" d=" M 42.37 6.82 C 43.19 7.24 44.72 8.92 43.05 9.32 C 42.07 9.24 41.15 8.96 40.28 8.48 C 40.80 8.07 41.85 7.23 42.37 6.82 Z" />
<path fill="#ab941d" d=" M 482.48 8.44 C 481.71 10.32 476.82 8.97 479.26 7.57 C 480.32 7.75 481.38 7.92 482.45 8.07 L 482.48 8.44 Z" />
<path fill="#dbbf63" d=" M 483.69 8.63 C 486.11 9.44 486.08 4.93 488.16 6.72 C 488.53 9.31 486.22 11.41 484.02 12.29 C 483.94 11.38 483.77 9.55 483.69 8.63 Z" />
<path fill="#d3b968" d=" M 488.96 6.36 C 490.02 6.94 491.10 7.49 492.19 8.01 C 492.16 8.92 492.09 10.74 492.06 11.65 C 491.67 11.52 490.90 11.27 490.51 11.14 C 487.99 10.95 488.84 7.95 488.96 6.36 Z" />
<path fill="#0fb72c" d=" M 511.96 10.75 C 514.22 9.35 516.57 8.09 518.94 6.89 C 519.04 10.22 518.98 13.55 518.87 16.88 C 517.91 14.83 516.44 13.10 514.44 12.00 C 514.53 13.83 514.77 15.63 515.16 17.42 C 514.88 17.02 514.34 16.23 514.07 15.83 C 513.97 14.49 513.90 13.15 513.86 11.80 C 513.38 11.54 512.43 11.01 511.96 10.75 Z" />
<path fill="#8b7c2d" d=" M 53.61 9.17 C 54.09 9.06 55.03 8.84 55.51 8.73 C 56.24 10.91 56.98 13.10 57.98 15.17 C 57.54 14.87 56.67 14.25 56.24 13.94 C 55.23 12.43 54.45 10.78 53.61 9.17 Z" />
<path fill="#937c25" d=" M 87.40 12.37 C 88.37 11.80 89.32 11.19 90.28 10.59 C 91.09 10.51 92.70 10.35 93.51 10.27 C 92.46 10.62 91.40 10.96 90.35 11.30 C 89.96 11.87 89.18 13.01 88.78 13.58 C 88.44 13.28 87.75 12.67 87.40 12.37 Z" />
<path fill="#a48d33" d=" M 427.64 9.99 C 430.36 10.38 432.96 11.24 435.50 12.26 C 435.31 12.51 434.93 13.02 434.74 13.28 C 432.34 12.25 430.11 10.84 427.64 9.99 Z" />
<path fill="#d49927" d=" M 30.42 10.99 C 30.86 11.08 31.73 11.26 32.16 11.35 C 31.26 12.73 30.68 12.61 30.42 10.99 Z" />
<path fill="#cd871b" d=" M 490.51 11.14 C 490.90 11.27 491.67 11.52 492.06 11.65 C 491.11 12.98 490.60 12.81 490.51 11.14 Z" />
<path fill="#0bab20" d=" M 506.48 12.85 C 508.32 12.21 510.15 11.51 511.96 10.75 C 512.43 11.01 513.38 11.54 513.86 11.80 C 513.90 13.15 513.97 14.49 514.07 15.83 C 514.34 16.23 514.88 17.02 515.16 17.42 L 515.62 18.06 C 515.12 21.28 512.19 23.25 511.55 26.38 C 513.05 25.66 514.54 24.90 516.03 24.14 C 516.19 28.98 511.06 31.04 507.93 33.70 C 504.23 32.49 500.80 29.04 500.90 24.96 C 501.19 20.98 505.22 19.13 507.77 16.65 C 507.87 15.27 506.89 14.10 506.48 12.85 Z" />
<path fill="#76880a" d=" M 8.26 12.57 C 8.48 12.48 8.91 12.29 9.13 12.20 C 9.25 14.31 8.54 16.39 7.18 18.01 C 6.40 16.25 7.26 14.08 8.26 12.57 Z" />
<path fill="#955713" d=" M 38.07 17.67 C 42.53 17.72 46.25 14.81 49.06 11.62 C 48.91 15.41 45.13 17.46 42.32 19.32 C 37.24 22.54 31.06 21.81 25.34 22.20 L 25.19 23.12 C 24.86 25.96 24.42 29.63 21.34 30.84 C 22.08 28.28 23.96 25.27 22.38 22.66 C 21.01 19.91 18.39 18.18 15.77 16.77 C 15.97 15.21 16.93 13.98 17.86 12.78 C 24.31 15.32 30.94 18.49 38.07 17.67 Z" />
<path fill="#955713" d=" M 472.54 13.22 C 473.04 12.64 473.56 12.06 474.08 11.49 C 476.37 16.90 482.88 17.96 488.08 17.87 C 493.88 17.36 499.21 14.80 504.60 12.79 C 505.38 13.87 506.17 14.94 506.97 16.01 C 504.95 17.64 502.72 19.03 500.93 20.91 C 498.99 23.45 500.13 26.82 500.29 29.70 C 497.37 28.47 497.66 24.88 496.97 22.29 C 496.66 22.39 496.03 22.59 495.71 22.69 L 495.55 22.73 C 490.89 22.53 486.08 22.57 481.76 20.57 C 477.88 19.29 475.50 15.80 472.54 13.22 Z" />
<path fill="#1e1000" d=" M 464.95 13.76 C 467.17 15.24 470.12 16.97 470.01 20.01 C 470.18 22.24 469.54 25.53 466.95 26.01 C 464.67 25.77 463.65 23.46 462.62 21.75 C 462.38 21.37 461.90 20.60 461.66 20.22 C 462.69 18.04 463.77 15.87 464.95 13.76 Z" />
<path fill="#1e1000" d=" M 52.22 20.22 C 52.74 17.71 54.73 15.90 56.24 13.94 C 56.67 14.25 57.54 14.87 57.98 15.17 C 59.41 16.84 60.16 18.90 60.77 20.97 C 59.18 23.14 57.34 25.12 55.12 26.65 C 53.75 24.77 51.96 22.73 52.22 20.22 Z" />
<path fill="#938461" d=" M 61.10 19.47 C 63.20 17.23 65.28 12.65 69.02 15.02 C 69.55 15.47 70.03 15.97 70.58 16.38 C 72.40 16.61 74.43 16.52 75.78 17.99 L 76.04 19.13 C 75.67 19.32 74.94 19.68 74.57 19.86 L 73.79 20.29 C 73.23 19.55 72.67 18.83 72.09 18.12 C 71.46 18.26 70.22 18.55 69.60 18.69 L 69.29 18.56 L 68.85 17.75 C 68.30 14.94 65.05 16.66 66.13 18.96 C 65.88 19.50 65.39 20.58 65.14 21.12 C 64.56 20.90 63.41 20.46 62.83 20.24 C 62.84 21.49 63.51 22.03 64.84 21.86 C 65.23 22.20 66.03 22.88 66.42 23.22 L 65.87 23.86 L 65.40 23.99 C 64.88 24.13 63.86 24.41 63.35 24.55 C 62.79 24.11 61.67 23.23 61.10 22.78 L 61.56 22.74 C 61.44 22.64 61.20 22.43 61.08 22.33 C 61.06 21.37 61.08 20.42 61.10 19.47 Z" />
<path fill="#9a8a62" d=" M 452.67 15.83 C 454.15 15.37 455.66 15.03 457.20 14.78 C 458.65 15.30 458.93 17.16 459.78 18.30 C 459.87 18.78 460.03 19.73 460.12 20.21 C 459.49 20.49 458.23 21.05 457.60 21.32 C 457.46 20.98 457.18 20.30 457.04 19.96 C 457.53 18.12 455.63 15.27 454.09 17.64 C 453.11 18.60 452.03 19.45 450.96 20.29 L 450.79 18.33 C 448.71 19.72 447.58 21.98 446.32 24.06 C 446.11 22.58 446.06 21.08 446.14 19.60 C 447.84 19.58 449.44 18.41 449.87 16.74 C 450.57 16.51 451.97 16.06 452.67 15.83 Z" />
<path fill="#cb0000" d=" M 56.28 15.15 C 57.81 16.83 60.75 19.27 58.71 21.63 C 57.89 23.02 55.72 26.30 54.33 23.69 C 52.05 20.80 54.51 17.52 56.28 15.15 Z" />
<path fill="#5d4521" d=" M 66.13 18.96 C 65.05 16.66 68.30 14.94 68.85 17.75 C 67.96 18.19 67.05 18.59 66.13 18.96 Z" />
<path fill="#c10000" d=" M 463.84 21.92 C 462.31 19.58 463.97 15.40 466.99 15.58 C 468.36 17.61 468.95 20.01 469.65 22.31 C 468.80 23.09 467.94 23.84 467.06 24.55 C 465.16 25.33 464.42 23.21 463.84 21.92 Z" />
<path fill="#1b1400" d=" M 446.14 19.60 C 446.13 17.67 448.36 17.11 449.87 16.74 C 449.44 18.41 447.84 19.58 446.14 19.60 Z" />
<path fill="#544820" d=" M 451.28 17.27 C 451.78 17.82 451.78 17.82 451.28 17.27 Z" />
<path fill="#574a2a" d=" M 454.09 17.64 C 455.63 15.27 457.53 18.12 457.04 19.96 C 456.01 19.25 454.98 18.53 454.09 17.64 Z" />
<path fill="#fdfcfa" d=" M 66.13 18.96 C 67.05 18.59 67.96 18.19 68.85 17.75 L 69.29 18.56 L 69.60 18.69 C 71.22 18.98 72.05 20.05 72.05 21.65 C 71.55 22.00 70.56 22.70 70.06 23.04 C 69.56 23.19 68.55 23.47 68.05 23.61 C 67.64 23.51 66.83 23.31 66.42 23.22 C 66.03 22.88 65.23 22.20 64.84 21.86 L 65.14 21.12 C 65.39 20.58 65.88 19.50 66.13 18.96 Z" />
<path fill="#352200" d=" M 69.60 18.69 C 70.22 18.55 71.46 18.26 72.09 18.12 C 72.67 18.83 73.23 19.55 73.79 20.29 C 73.90 20.72 74.13 21.59 74.25 22.02 C 73.75 22.27 72.76 22.78 72.27 23.04 L 72.05 21.65 C 72.05 20.05 71.22 18.98 69.60 18.69 Z" />
<path fill="#fdfcfa" d=" M 454.09 17.64 C 454.98 18.53 456.01 19.25 457.04 19.96 C 457.18 20.30 457.46 20.98 457.60 21.32 L 457.96 22.21 L 457.17 22.24 C 455.82 22.31 454.91 23.56 453.98 24.38 L 453.09 23.30 C 452.59 23.06 451.60 22.58 451.10 22.34 C 451.07 21.83 450.99 20.80 450.96 20.29 C 452.03 19.45 453.11 18.60 454.09 17.64 Z" />
<path fill="#029815" d=" M 459.78 18.30 C 461.27 18.75 461.38 19.39 460.12 20.21 C 460.03 19.73 459.87 18.78 459.78 18.30 Z" />
<path fill="#44391d" d=" M 74.57 19.86 C 74.94 19.68 75.67 19.32 76.04 19.13 C 76.30 20.38 76.26 21.62 75.93 22.87 C 75.67 22.57 75.17 21.98 74.92 21.68 C 74.83 21.23 74.66 20.32 74.57 19.86 Z" />
<path fill="#89733b" d=" M 446.32 24.06 C 447.58 21.98 448.71 19.72 450.79 18.33 L 450.96 20.29 C 450.99 20.80 451.07 21.83 451.10 22.34 C 451.60 22.58 452.59 23.06 453.09 23.30 C 452.11 24.07 451.14 24.85 450.17 25.63 C 448.90 25.07 447.60 24.59 446.32 24.06 Z" />
<path fill="#0fb72c" d=" M 518.59 18.83 C 518.94 20.94 519.01 23.09 518.78 25.22 C 516.72 23.42 517.57 20.96 518.59 18.83 Z" />
<path fill="#4b360f" d=" M 62.83 20.24 C 63.41 20.46 64.56 20.90 65.14 21.12 L 64.84 21.86 C 63.51 22.03 62.84 21.49 62.83 20.24 Z" />
<path fill="#000001" d=" M 66.51 20.97 C 67.17 19.84 69.88 19.54 70.30 20.99 C 69.72 22.47 66.85 22.75 66.51 20.97 Z" />
<path fill="#d5c4a0" d=" M 73.79 20.29 L 74.57 19.86 C 74.66 20.32 74.83 21.23 74.92 21.68 L 74.25 22.02 C 74.13 21.59 73.90 20.72 73.79 20.29 Z" />
<path fill="#73758f" d=" M 453.25 20.14 C 454.98 19.68 455.60 20.20 455.10 21.72 C 453.37 22.21 452.75 21.68 453.25 20.14 Z" />
<path fill="#624114" d=" M 457.60 21.32 C 458.23 21.05 459.49 20.49 460.12 20.21 C 460.03 20.61 459.86 21.42 459.77 21.82 C 459.32 21.92 458.41 22.11 457.96 22.21 L 457.60 21.32 Z" />
<path fill="#86714b" d=" M 459.77 21.82 C 460.24 21.42 461.18 20.62 461.66 20.22 C 461.90 20.60 462.38 21.37 462.62 21.75 C 461.87 22.28 461.11 22.79 460.36 23.31 C 460.09 23.48 459.55 23.84 459.28 24.01 C 459.16 24.17 458.92 24.48 458.80 24.63 C 457.80 25.89 456.98 27.74 455.08 27.64 C 453.31 27.32 451.78 26.32 450.17 25.63 C 451.14 24.85 452.11 24.07 453.09 23.30 L 453.98 24.38 C 455.30 26.57 457.26 23.85 457.17 22.24 L 457.96 22.21 C 458.41 22.11 459.32 21.92 459.77 21.82 Z" />
<path fill="#454120" d=" M 61.08 22.33 C 61.20 22.43 61.44 22.64 61.56 22.74 L 61.10 22.78 L 61.08 22.33 Z" />
<path fill="#86714b" d=" M 70.06 23.04 C 70.56 22.70 71.55 22.00 72.05 21.65 L 72.27 23.04 C 72.76 22.78 73.75 22.27 74.25 22.02 L 74.92 21.68 C 75.17 21.98 75.67 22.57 75.93 22.87 L 76.19 24.04 C 74.62 24.52 73.05 24.99 71.48 25.45 C 71.12 25.90 70.41 26.82 70.05 27.28 C 67.92 27.32 65.80 27.01 63.91 25.97 C 64.22 25.58 64.84 24.80 65.15 24.41 L 65.82 24.53 C 67.40 25.80 69.89 25.27 70.06 23.04 Z" />
<path fill="#352200" d=" M 453.98 24.38 C 454.91 23.56 455.82 22.31 457.17 22.24 C 457.26 23.85 455.30 26.57 453.98 24.38 Z" />
<path fill="#56361b" d=" M 66.42 23.22 C 66.83 23.31 67.64 23.51 68.05 23.61 C 68.55 23.47 69.56 23.19 70.06 23.04 C 69.89 25.27 67.40 25.80 65.82 24.53 L 65.87 23.86 L 66.42 23.22 Z" />
<path fill="#1e1000" d=" M 459.28 24.01 C 459.55 23.84 460.09 23.48 460.36 23.31 L 460.03 24.43 C 462.24 28.06 465.01 31.31 468.00 34.32 C 471.34 32.27 475.17 31.45 478.92 30.49 C 481.14 32.44 483.62 34.18 485.25 36.70 C 485.96 38.12 487.62 38.35 489.06 38.27 C 490.91 37.11 492.33 35.41 494.02 34.04 C 494.56 34.08 495.65 34.16 496.20 34.20 C 497.55 36.36 495.30 38.23 494.37 40.03 C 495.22 40.74 496.08 41.44 496.95 42.15 C 496.90 43.00 496.82 44.69 496.78 45.53 C 493.92 44.63 491.78 42.52 489.52 40.67 C 488.25 40.42 486.96 40.65 485.70 40.67 C 484.59 44.18 481.16 45.67 478.82 48.17 C 475.27 46.74 471.30 46.54 468.09 44.26 C 465.00 47.24 462.49 50.71 460.07 54.23 C 460.23 54.67 460.55 55.57 460.70 56.01 C 460.25 56.71 459.36 58.10 458.91 58.79 C 462.60 59.37 464.18 55.84 466.74 54.02 C 468.31 55.68 470.12 57.54 469.98 60.03 C 470.03 63.02 467.18 64.81 465.59 67.00 C 463.46 64.75 461.47 62.13 461.91 58.83 C 461.27 59.04 459.98 59.48 459.33 59.70 C 459.24 59.87 459.04 60.21 458.95 60.38 C 458.52 60.16 458.10 59.94 457.69 59.72 C 457.74 58.31 457.78 56.89 457.81 55.48 C 457.49 55.57 456.86 55.75 456.54 55.85 L 455.32 54.46 C 455.12 54.24 454.74 53.81 454.55 53.59 C 455.77 53.15 457.05 52.84 457.99 51.81 C 457.70 52.78 457.13 54.72 456.84 55.69 C 460.58 51.86 463.01 46.89 467.30 43.57 C 465.73 42.20 464.24 40.67 463.66 38.61 C 464.87 37.47 466.08 36.32 467.31 35.19 C 463.68 32.37 461.22 28.46 458.80 24.63 C 458.92 24.48 459.16 24.17 459.28 24.01 Z" />
<path fill="#000001" d=" M 63.35 24.55 C 63.86 24.41 64.88 24.13 65.40 23.99 L 65.15 24.41 C 64.84 24.80 64.22 25.58 63.91 25.97 C 62.07 28.67 60.25 31.43 57.75 33.57 L 56.94 33.07 C 59.36 30.46 61.44 27.56 63.35 24.55 Z" />
<path fill="#e5d0ab" d=" M 65.40 23.99 L 65.87 23.86 L 65.82 24.53 L 65.15 24.41 L 65.40 23.99 Z" />
<path fill="#0dae22" d=" M 518.71 27.02 C 519.29 35.70 518.91 44.41 518.96 53.10 C 517.73 51.38 516.42 49.69 514.45 48.79 C 513.30 47.52 512.19 46.22 511.08 44.92 C 512.48 43.14 514.06 41.50 515.82 40.07 C 514.72 39.64 513.62 39.20 512.54 38.76 C 512.21 37.92 511.55 36.24 511.22 35.40 C 511.52 35.00 512.13 34.21 512.43 33.81 C 514.93 31.95 517.79 30.23 518.71 27.02 Z" />
<path fill="#8c6124" d=" M 500.29 29.70 C 500.96 30.01 500.96 30.01 500.29 29.70 Z" />
<path fill="#0cad23" d=" M 1.33 32.42 C 4.01 36.83 3.54 41.99 2.94 46.89 C 4.22 46.78 5.50 46.68 6.78 46.57 C 7.27 46.94 8.26 47.67 8.75 48.03 C 6.64 49.62 3.90 51.16 3.44 54.03 C 3.74 55.53 4.37 56.93 4.77 58.40 C 4.49 60.59 3.02 62.69 3.74 64.94 C 4.55 66.91 6.62 67.75 8.26 68.89 C 8.92 69.35 9.57 69.83 10.21 70.32 C 7.14 72.06 4.11 73.87 1.03 75.60 C 1.24 61.21 0.69 46.79 1.33 32.42 Z" />
<path fill="#1b1400" d=" M 55.89 34.37 C 56.15 34.05 56.68 33.40 56.94 33.07 L 57.75 33.57 C 57.44 33.88 56.83 34.50 56.52 34.82 L 55.89 34.37 Z" />
<path fill="#837744" d=" M 494.02 34.04 C 494.30 33.81 494.86 33.37 495.14 33.14 C 495.70 33.33 496.82 33.69 497.38 33.87 L 497.35 34.02 C 496.96 35.66 496.59 37.30 496.20 38.94 C 497.99 38.94 499.78 38.97 501.58 39.05 C 500.97 41.25 498.72 40.65 497.00 40.76 L 496.95 42.15 C 496.08 41.44 495.22 40.74 494.37 40.03 C 495.30 38.23 497.55 36.36 496.20 34.20 C 495.65 34.16 494.56 34.08 494.02 34.04 Z" />
<path fill="#63910b" d=" M 10.19 34.46 C 11.65 33.61 12.10 33.93 11.52 35.43 C 11.18 35.18 10.52 34.70 10.19 34.46 Z" />
<path fill="#000001" d=" M 17.99 38.10 C 20.72 37.39 22.27 34.79 24.82 33.71 C 23.68 34.65 22.56 35.64 21.91 36.99 C 21.07 37.29 20.24 37.59 19.40 37.89 L 17.99 38.10 Z" />
<path fill="#7e7939" d=" M 45.20 34.93 C 45.54 33.00 50.34 33.18 50.65 35.08 C 48.83 35.04 47.01 34.98 45.20 34.93 Z" />
<path fill="#000001" d=" M 497.38 33.87 C 500.66 34.08 501.77 37.63 504.80 38.45 C 504.77 38.89 504.70 39.78 504.67 40.22 L 504.39 40.76 C 504.21 41.07 503.86 41.70 503.69 42.01 C 502.08 42.14 501.01 43.26 500.01 44.39 C 499.48 44.59 498.41 44.99 497.87 45.18 C 499.76 43.54 501.78 42.02 504.05 40.93 C 504.02 40.20 503.95 38.75 503.92 38.03 C 502.85 37.74 501.79 37.45 500.74 37.17 C 500.42 36.75 499.79 35.91 499.47 35.50 C 498.94 35.13 497.88 34.39 497.35 34.02 L 497.38 33.87 Z" />
<path fill="#89733b" d=" M 510.02 36.02 C 510.24 34.40 511.04 33.66 512.43 33.81 C 512.13 34.21 511.52 35.00 511.22 35.40 C 511.06 35.64 510.74 36.10 510.58 36.34 C 508.56 37.56 506.55 38.81 504.67 40.22 C 504.70 39.78 504.77 38.89 504.80 38.45 C 505.89 37.46 507.37 36.82 508.07 35.46 C 508.71 35.65 509.36 35.83 510.02 36.02 Z" />
<path fill="#94934f" d=" M 11.65 36.15 C 12.50 36.00 13.35 35.85 14.20 35.70 C 15.37 36.61 16.33 38.15 17.99 38.10 L 19.40 37.89 L 18.71 38.62 C 18.34 39.02 17.59 39.80 17.22 40.19 C 15.47 39.00 13.76 37.76 12.08 36.48 L 11.65 36.15 Z" />
<path fill="#fcfaf8" d=" M 43.84 39.28 C 42.22 38.17 43.59 35.37 45.20 34.93 C 47.01 34.98 48.83 35.04 50.65 35.08 C 51.26 35.30 52.46 35.75 53.07 35.97 C 50.19 37.55 47.16 39.02 43.84 39.28 Z" />
<path fill="#fdfcfa" d=" M 464.67 39.19 C 468.09 36.32 472.41 33.52 477.09 34.80 C 479.13 35.22 479.36 37.42 479.13 39.13 C 475.90 38.81 473.10 36.04 469.86 36.65 C 471.75 38.02 473.94 38.91 476.05 39.89 C 473.36 40.06 470.95 41.15 468.77 42.64 C 467.34 41.56 465.97 40.40 464.67 39.19 Z" />
<path fill="#d0e8e2" d=" M 497.35 34.02 C 497.88 34.39 498.94 35.13 499.47 35.50 C 499.79 35.91 500.42 36.75 500.74 37.17 C 501.79 37.45 502.85 37.74 503.92 38.03 C 503.95 38.75 504.02 40.20 504.05 40.93 C 501.78 42.02 499.76 43.54 497.87 45.18 C 498.41 44.99 499.48 44.59 500.01 44.39 C 501.01 43.26 502.08 42.14 503.69 42.01 C 505.48 42.96 507.27 43.93 509.01 44.98 C 505.56 46.26 501.82 47.32 499.14 49.99 C 497.03 52.10 496.34 55.12 495.75 57.94 C 487.27 56.38 477.44 58.89 472.80 66.68 C 471.24 68.76 470.81 72.57 467.38 71.42 C 465.56 72.25 463.74 73.07 461.89 73.80 C 458.78 74.84 456.00 76.57 453.70 78.90 C 451.63 79.70 451.88 76.19 449.85 76.42 C 447.45 75.60 447.66 80.00 445.18 78.99 C 444.28 78.02 443.41 77.03 442.51 76.08 C 446.59 71.66 449.98 66.42 455.30 63.30 C 455.61 63.14 456.21 62.82 456.52 62.66 L 456.81 62.61 C 457.07 62.58 457.57 62.52 457.83 62.49 C 458.11 61.96 458.67 60.91 458.95 60.38 C 459.04 60.21 459.24 59.87 459.33 59.70 C 459.98 59.48 461.27 59.04 461.91 58.83 C 461.47 62.13 463.46 64.75 465.59 67.00 C 467.18 64.81 470.03 63.02 469.98 60.03 C 470.12 57.54 468.31 55.68 466.74 54.02 C 464.18 55.84 462.60 59.37 458.91 58.79 C 459.36 58.10 460.25 56.71 460.70 56.01 C 460.55 55.57 460.23 54.67 460.07 54.23 C 462.49 50.71 465.00 47.24 468.09 44.26 C 471.30 46.54 475.27 46.74 478.82 48.17 C 481.16 45.67 484.59 44.18 485.70 40.67 C 486.96 40.65 488.25 40.42 489.52 40.67 C 491.78 42.52 493.92 44.63 496.78 45.53 C 496.82 44.69 496.90 43.00 496.95 42.15 L 497.00 40.76 C 498.72 40.65 500.97 41.25 501.58 39.05 C 499.78 38.97 497.99 38.94 496.20 38.94 C 496.59 37.30 496.96 35.66 497.35 34.02 Z" />
<path fill="#000001" d=" M 510.58 36.34 C 510.74 36.10 511.06 35.64 511.22 35.40 C 511.55 36.24 512.21 37.92 512.54 38.76 C 513.62 39.20 514.72 39.64 515.82 40.07 C 514.06 41.50 512.48 43.14 511.08 44.92 C 510.94 44.76 510.65 44.43 510.50 44.26 C 511.35 42.94 512.43 41.79 513.72 40.87 C 512.56 39.44 511.44 37.96 510.58 36.34 Z" />
<path fill="#cceae8" d=" M 12.08 36.48 C 13.76 37.76 15.47 39.00 17.22 40.19 L 18.16 40.84 C 16.34 42.01 14.65 43.36 12.97 44.73 C 10.83 44.47 10.47 41.41 8.67 40.28 C 10.27 39.48 11.25 38.00 12.08 36.48 Z" />
<path fill="#fcfaf8" d=" M 47.50 39.67 C 49.73 38.89 51.85 37.85 54.01 36.91 C 55.57 36.57 56.46 38.27 57.66 38.94 C 56.47 40.12 55.27 41.30 54.09 42.49 C 51.87 41.59 49.68 40.64 47.50 39.67 Z" />
<path fill="#dbf2e7" d=" M 504.67 40.22 C 506.55 38.81 508.56 37.56 510.58 36.34 C 511.44 37.96 512.56 39.44 513.72 40.87 C 512.43 41.79 511.35 42.94 510.50 44.26 C 508.51 43.00 506.45 41.88 504.39 40.76 L 504.67 40.22 Z" />
<path fill="#955713" d=" M 26.21 38.06 C 28.67 38.55 28.52 40.39 26.39 41.34 C 26.01 42.61 25.65 43.89 25.28 45.16 L 25.35 44.56 C 25.48 43.59 25.72 41.65 25.85 40.68 C 23.99 40.82 22.16 40.57 20.43 39.88 C 22.48 38.98 24.67 39.21 26.78 39.73 L 26.21 38.06 Z" />
<path fill="#5c5725" d=" M 32.02 39.98 C 33.66 40.02 35.30 40.07 36.95 40.14 C 38.18 42.28 39.65 44.27 41.31 46.09 C 39.07 45.03 37.65 43.04 36.63 40.85 C 35.22 40.84 33.81 40.84 32.41 40.93 L 32.02 39.98 Z" />
<path fill="#fcfaf8" d=" M 470.70 43.52 C 472.57 40.91 476.18 40.81 478.91 39.55 C 479.31 40.77 479.37 42.34 478.19 43.17 C 476.04 45.00 473.14 43.96 470.70 43.52 Z" />
<path fill="#d0e8e2" d=" M 32.41 40.93 C 33.81 40.84 35.22 40.84 36.63 40.85 C 37.65 43.04 39.07 45.03 41.31 46.09 C 42.36 46.67 43.13 47.61 43.95 48.46 C 46.97 46.20 51.34 47.00 54.25 44.22 C 57.77 47.05 60.45 50.71 62.86 54.48 L 62.72 55.09 L 62.33 55.29 C 62.08 55.48 61.59 55.87 61.34 56.06 C 60.05 56.82 59.70 57.85 60.31 59.15 C 60.60 59.75 61.18 60.96 61.48 61.57 C 60.80 63.55 60.14 65.66 57.87 66.30 C 59.17 63.91 59.92 60.44 57.79 58.30 C 56.48 56.71 54.52 55.96 52.74 55.06 C 51.41 57.05 50.46 59.44 51.22 61.84 C 52.18 64.18 54.60 65.34 56.50 66.79 C 55.91 68.09 55.33 69.40 54.77 70.71 C 54.34 71.27 53.50 72.40 53.07 72.97 C 50.77 69.09 49.13 64.52 45.27 61.85 C 40.35 58.14 33.42 56.23 27.47 58.31 L 27.29 58.36 C 25.57 56.97 26.24 54.47 25.15 52.72 C 23.01 48.22 17.89 46.72 13.63 45.00 C 14.81 44.18 15.99 43.36 17.17 42.53 C 18.42 42.60 19.68 42.65 20.93 42.67 C 21.61 43.49 22.29 44.32 22.96 45.15 C 26.89 46.06 29.99 43.72 32.41 40.93 Z" />
<path fill="#fcfaf8" d=" M 43.04 40.10 C 46.22 40.67 49.38 41.48 52.28 42.96 C 49.17 44.84 43.07 45.08 43.04 40.10 Z" />
<path fill="#a2611a" d=" M 504.39 40.76 C 506.45 41.88 508.51 43.00 510.50 44.26 C 510.65 44.43 510.94 44.76 511.08 44.92 C 512.19 46.22 513.30 47.52 514.45 48.79 C 515.23 50.19 515.91 51.70 515.77 53.35 L 515.46 53.08 C 515.17 52.81 514.57 52.26 514.28 51.98 C 512.97 49.35 511.50 46.68 509.01 44.98 C 507.27 43.93 505.48 42.96 503.69 42.01 C 503.86 41.70 504.21 41.07 504.39 40.76 Z" />
<path fill="#1b1400" d=" M 499.14 49.99 C 501.82 47.32 505.56 46.26 509.01 44.98 C 511.50 46.68 512.97 49.35 514.28 51.98 C 512.15 50.34 510.00 48.75 507.91 47.07 C 503.31 48.21 499.65 53.12 501.16 57.87 C 502.50 60.63 505.53 61.90 507.57 64.04 C 507.42 65.40 507.09 66.72 506.82 68.05 C 508.40 68.78 509.99 69.50 511.59 70.24 C 510.60 71.36 509.63 72.49 508.61 73.59 C 508.67 68.90 503.44 68.86 500.23 67.46 C 493.79 64.99 486.56 62.91 479.79 65.40 C 475.61 66.97 474.29 71.74 470.77 74.09 L 469.61 74.30 C 473.09 70.00 476.46 64.44 482.44 63.60 C 490.21 62.02 497.66 65.46 504.69 68.30 C 505.45 67.14 506.21 65.98 506.99 64.81 C 504.36 62.22 499.49 60.42 499.92 56.03 C 500.02 53.65 500.64 51.33 501.05 48.99 C 498.50 51.62 497.45 55.17 496.59 58.63 C 491.87 58.68 486.92 58.12 482.46 60.02 C 478.74 61.44 475.96 64.38 472.80 66.68 C 477.44 58.89 487.27 56.38 495.75 57.94 C 496.34 55.12 497.03 52.10 499.14 49.99 Z" />
<path fill="#049d17" d=" M 6.54 55.91 C 7.28 51.33 11.73 49.54 15.03 47.10 C 17.71 48.60 19.92 50.75 21.85 53.13 L 20.90 54.11 C 19.81 54.74 19.64 56.35 20.87 56.95 L 21.86 57.83 C 19.77 60.59 16.84 62.47 14.26 64.72 C 14.91 65.80 15.55 66.88 16.18 67.96 C 14.24 68.86 12.26 69.70 10.21 70.32 C 9.57 69.83 8.92 69.35 8.26 68.89 C 7.83 66.48 6.56 64.02 7.36 61.56 C 7.98 59.10 9.97 57.36 11.15 55.19 C 10.00 55.37 7.69 55.73 6.54 55.91 Z" />
<path fill="#08a11c" d=" M 501.16 57.87 C 499.65 53.12 503.31 48.21 507.91 47.07 C 510.00 48.75 512.15 50.34 514.28 51.98 C 514.57 52.26 515.17 52.81 515.46 53.08 C 515.35 53.52 515.12 54.38 515.00 54.82 C 514.13 54.90 512.39 55.05 511.52 55.13 C 512.56 56.88 513.71 58.59 514.88 60.26 C 514.76 62.64 514.52 65.02 513.98 67.35 C 513.21 68.33 512.39 69.29 511.59 70.24 C 509.99 69.50 508.40 68.78 506.82 68.05 C 507.09 66.72 507.42 65.40 507.57 64.04 C 505.53 61.90 502.50 60.63 501.16 57.87 Z" />
<path fill="#955713" d=" M 496.59 58.63 C 497.45 55.17 498.50 51.62 501.05 48.99 C 500.64 51.33 500.02 53.65 499.92 56.03 C 499.49 60.42 504.36 62.22 506.99 64.81 C 506.21 65.98 505.45 67.14 504.69 68.30 C 497.66 65.46 490.21 62.02 482.44 63.60 C 476.46 64.44 473.09 70.00 469.61 74.30 C 469.52 74.32 469.34 74.35 469.25 74.36 C 466.95 73.14 464.36 73.32 461.89 73.80 C 463.74 73.07 465.56 72.25 467.38 71.42 C 470.81 72.57 471.24 68.76 472.80 66.68 C 475.96 64.38 478.74 61.44 482.46 60.02 C 486.92 58.12 491.87 58.68 496.59 58.63 Z" />
<path fill="#955713" d=" M 21.55 49.99 C 24.72 51.81 24.82 55.77 25.76 58.89 C 26.14 58.76 26.91 58.49 27.29 58.36 L 27.47 58.31 C 36.71 57.38 47.67 61.42 50.64 70.98 C 47.75 68.64 45.66 65.15 41.90 64.05 C 34.45 61.74 26.72 64.59 19.84 67.43 C 17.90 68.81 16.25 66.70 15.77 64.97 C 17.57 62.41 21.27 61.50 22.29 58.31 C 23.57 55.59 21.90 52.72 21.55 49.99 Z" />
<path fill="#86714b" d=" M 64.15 52.00 C 68.22 50.18 71.54 54.18 75.42 54.76 C 75.60 56.90 76.33 59.21 75.34 61.25 C 73.71 62.08 71.98 62.69 70.30 63.42 C 69.59 63.48 68.89 63.54 68.18 63.59 L 67.37 63.06 C 67.73 62.08 68.47 61.42 69.59 61.07 C 69.25 61.03 68.58 60.95 68.24 60.91 C 68.86 60.63 70.09 60.06 70.70 59.77 C 71.28 59.74 72.42 59.67 72.99 59.64 C 72.79 58.33 72.60 57.03 72.39 55.73 C 70.70 55.85 69.12 55.42 67.79 54.33 C 67.09 54.32 65.67 54.30 64.96 54.28 C 64.76 53.71 64.36 52.57 64.15 52.00 Z" />
<path fill="#432900" d=" M 447.46 53.74 C 451.10 53.40 454.24 49.85 457.99 51.81 C 457.05 52.84 455.77 53.15 454.55 53.59 C 454.74 53.81 455.12 54.24 455.32 54.46 C 454.33 54.82 453.35 55.20 452.39 55.60 C 452.22 55.04 451.90 53.91 451.73 53.35 C 451.72 55.10 449.93 57.21 451.20 58.78 C 452.84 59.73 454.95 61.03 456.53 59.19 L 457.69 59.72 C 458.10 59.94 458.52 60.16 458.95 60.38 C 458.67 60.91 458.11 61.96 457.83 62.49 C 457.57 62.52 457.07 62.58 456.81 62.61 C 456.76 62.61 456.65 62.61 456.60 62.61 L 456.52 62.66 C 456.21 62.82 455.61 63.14 455.30 63.30 C 449.98 66.42 446.59 71.66 442.51 76.08 C 442.22 75.88 441.64 75.47 441.36 75.27 C 443.11 73.89 445.10 72.54 445.32 70.10 C 447.98 67.86 451.17 65.88 452.51 62.50 C 452.99 62.61 453.95 62.83 454.43 62.94 C 453.98 59.11 449.40 59.60 446.59 59.37 C 446.45 57.44 446.82 55.55 447.46 53.74 Z" />
<path fill="#bbc11a" d=" M 515.46 53.08 L 515.77 53.35 C 516.60 54.45 517.02 57.76 515.08 57.69 C 515.06 56.97 515.02 55.54 515.00 54.82 C 515.12 54.38 515.35 53.52 515.46 53.08 Z" />
<path fill="#0bab20" d=" M 20.87 56.95 C 19.64 56.35 19.81 54.74 20.90 54.11 C 21.04 54.62 21.33 55.65 21.47 56.16 L 20.87 56.95 Z" />
<path fill="#fffefd" d=" M 451.73 53.35 C 451.90 53.91 452.22 55.04 452.39 55.60 C 453.35 55.20 454.33 54.82 455.32 54.46 L 456.54 55.85 C 456.86 55.75 457.49 55.57 457.81 55.48 C 457.78 56.89 457.74 58.31 457.69 59.72 L 456.53 59.19 C 454.95 61.03 452.84 59.73 451.20 58.78 C 449.93 57.21 451.72 55.10 451.73 53.35 Z" />
<path fill="#1e1000" d=" M 51.22 61.84 C 50.46 59.44 51.41 57.05 52.74 55.06 C 54.52 55.96 56.48 56.71 57.79 58.30 C 59.92 60.44 59.17 63.91 57.87 66.30 C 56.84 68.22 55.90 70.20 54.98 72.18 C 54.93 71.81 54.82 71.08 54.77 70.71 C 55.33 69.40 55.91 68.09 56.50 66.79 C 54.60 65.34 52.18 64.18 51.22 61.84 Z" />
<path fill="#96835c" d=" M 62.33 55.29 L 62.72 55.09 C 63.06 56.28 63.20 57.50 63.13 58.75 L 63.97 58.87 C 64.39 58.94 65.23 59.08 65.65 59.15 C 65.96 59.55 66.58 60.34 66.89 60.73 C 66.64 61.31 66.16 62.47 65.92 63.04 L 65.57 62.95 C 65.03 62.29 63.94 60.96 63.40 60.29 C 63.23 60.40 62.90 60.62 62.73 60.72 C 62.42 60.93 61.79 61.35 61.48 61.57 C 61.18 60.96 60.60 59.75 60.31 59.15 C 61.41 58.44 61.75 57.41 61.34 56.06 C 61.59 55.87 62.08 55.48 62.33 55.29 Z" />
<path fill="#fffefd" d=" M 63.97 58.87 C 64.74 56.98 66.44 54.62 68.77 55.11 C 68.38 56.52 66.82 57.91 67.87 59.40 C 68.56 58.29 69.20 57.14 69.98 56.09 C 71.70 55.54 72.21 59.15 70.70 59.77 C 70.09 60.06 68.86 60.63 68.24 60.91 C 67.90 60.87 67.23 60.78 66.89 60.73 C 66.58 60.34 65.96 59.55 65.65 59.15 C 65.23 59.08 64.39 58.94 63.97 58.87 Z" />
<path fill="#0e2f01" d=" M 511.52 55.13 C 512.39 55.05 514.13 54.90 515.00 54.82 C 515.02 55.54 515.06 56.97 515.08 57.69 C 515.03 58.33 514.93 59.62 514.88 60.26 C 513.71 58.59 512.56 56.88 511.52 55.13 Z" />
<path fill="#000001" d=" M 60.31 59.15 C 59.70 57.85 60.05 56.82 61.34 56.06 C 61.75 57.41 61.41 58.44 60.31 59.15 Z" />
<path fill="#432900" d=" M 453.33 56.47 C 455.54 54.63 456.71 59.30 453.80 58.52 C 453.69 58.01 453.45 56.98 453.33 56.47 Z" />
<path fill="#ca0000" d=" M 466.12 56.11 C 467.97 55.64 468.55 57.83 468.80 59.20 C 469.27 61.44 467.47 63.20 466.47 64.99 C 463.68 64.98 463.09 62.11 462.70 59.91 C 463.61 58.53 464.42 56.67 466.12 56.11 Z" />
<path fill="#11b325" d=" M 517.59 57.83 C 517.92 57.31 518.59 56.28 518.93 55.76 C 518.71 61.84 518.94 67.92 518.93 74.00 C 516.83 72.96 514.75 71.86 512.89 70.43 C 513.08 70.03 513.45 69.23 513.64 68.83 C 513.95 68.63 514.59 68.23 514.91 68.03 C 519.59 66.71 518.53 61.41 517.59 57.83 Z" />
<path fill="#d90000" d=" M 52.76 56.90 C 56.65 56.61 59.76 61.32 57.58 64.65 C 56.36 65.05 55.08 64.59 53.84 64.54 C 52.23 62.22 51.79 59.57 52.76 56.90 Z" />
<path fill="#432900" d=" M 62.73 60.72 C 62.90 60.62 63.23 60.40 63.40 60.29 C 63.94 60.96 65.03 62.29 65.57 62.95 C 65.63 63.03 65.76 63.19 65.82 63.26 L 65.92 63.04 C 66.16 62.47 66.64 61.31 66.89 60.73 C 67.23 60.78 67.90 60.87 68.24 60.91 C 68.58 60.95 69.25 61.03 69.59 61.07 C 68.47 61.42 67.73 62.08 67.37 63.06 L 67.36 65.10 C 65.28 64.25 63.76 62.69 62.73 60.72 Z" />
<path fill="#aa9777" d=" M 446.59 59.37 C 449.40 59.60 453.98 59.11 454.43 62.94 C 453.95 62.83 452.99 62.61 452.51 62.50 L 451.64 61.91 C 451.55 61.85 451.39 61.74 451.31 61.69 L 451.15 61.71 C 450.39 61.80 448.86 61.98 448.09 62.07 C 447.72 61.39 446.96 60.04 446.59 59.37 Z" />
<path fill="#809f11" d=" M 514.88 60.26 L 516.48 58.75 C 516.39 61.74 516.38 65.16 513.98 67.35 C 514.52 65.02 514.76 62.64 514.88 60.26 Z" />
<path fill="#d4ece4" d=" M 61.48 61.57 C 61.79 61.35 62.42 60.93 62.73 60.72 C 63.76 62.69 65.28 64.25 67.36 65.10 L 67.37 63.06 L 68.18 63.59 C 70.22 64.77 71.76 66.58 73.23 68.38 C 73.92 70.64 75.33 72.52 76.51 74.52 C 77.26 75.60 76.59 76.67 75.71 77.35 C 74.31 76.78 72.92 75.73 71.34 76.29 C 70.58 77.14 70.07 78.13 69.81 79.28 C 68.20 78.69 67.07 77.36 65.75 76.34 C 62.52 74.17 58.75 73.01 54.98 72.18 C 55.90 70.20 56.84 68.22 57.87 66.30 C 60.14 65.66 60.80 63.55 61.48 61.57 Z" />
<path fill="#5e4f23" d=" M 451.31 61.69 C 451.39 61.74 451.55 61.85 451.64 61.91 L 451.15 61.71 L 451.31 61.69 Z" />
<path fill="#fcfaf8" d=" M 65.57 62.95 L 65.92 63.04 L 65.82 63.26 C 65.76 63.19 65.63 63.03 65.57 62.95 Z" />
<path fill="#1b1400" d=" M 456.60 62.61 C 456.65 62.61 456.76 62.61 456.81 62.61 L 456.52 62.66 L 456.60 62.61 Z" />
<path fill="#1b1400" d=" M 68.18 63.59 C 68.89 63.54 69.59 63.48 70.30 63.42 C 72.44 66.02 74.87 68.35 77.60 70.32 C 77.97 72.49 79.41 73.99 81.34 74.97 C 80.99 75.21 80.30 75.69 79.95 75.93 L 79.87 75.36 C 78.30 74.24 77.05 72.82 76.55 70.91 C 75.44 70.07 74.32 69.24 73.23 68.38 C 71.76 66.58 70.22 64.77 68.18 63.59 Z" />
<path fill="#06a21c" d=" M 479.79 65.40 C 486.56 62.91 493.79 64.99 500.23 67.46 C 503.44 68.86 508.67 68.90 508.61 73.59 C 506.81 75.45 504.77 77.19 502.24 77.95 C 500.87 77.26 499.49 76.59 498.11 75.95 C 498.34 74.43 498.58 72.92 498.82 71.41 C 497.12 71.32 495.41 71.24 493.72 71.32 C 493.26 69.98 492.83 68.63 492.42 67.28 C 491.00 68.21 489.75 69.61 488.03 69.90 C 486.38 69.40 484.85 68.64 483.28 67.95 C 483.01 69.13 482.71 70.30 482.37 71.46 C 480.60 71.84 478.75 71.38 476.97 71.34 C 477.44 72.72 477.96 74.09 478.54 75.44 C 476.99 76.15 475.45 76.86 473.91 77.58 C 472.84 76.43 471.79 75.27 470.77 74.09 C 474.29 71.74 475.61 66.97 479.79 65.40 Z" />
<path fill="#0bab20" d=" M 14.25 70.79 C 21.60 68.02 28.86 63.80 36.98 64.30 C 42.86 64.31 47.80 68.56 50.30 73.63 C 51.57 73.91 52.86 74.19 54.14 74.46 C 52.68 75.93 51.25 77.44 49.65 78.76 C 49.34 78.87 48.73 79.08 48.43 79.19 C 48.12 76.89 45.87 76.28 44.17 75.29 C 44.83 74.02 45.42 72.72 45.89 71.37 C 43.93 71.44 41.97 71.55 40.01 71.67 C 39.89 70.87 39.64 69.25 39.52 68.45 C 38.47 68.41 37.41 68.38 36.36 68.34 C 36.01 68.88 35.31 69.97 34.96 70.51 C 33.94 69.78 32.92 69.04 31.91 68.30 C 31.32 68.29 30.13 68.27 29.54 68.25 C 29.43 69.07 29.21 70.70 29.11 71.52 C 27.20 71.48 25.29 71.45 23.38 71.43 C 23.83 72.94 24.21 74.46 24.54 76.00 C 22.64 76.58 21.11 78.02 19.18 78.46 C 16.17 77.08 14.12 74.16 14.25 70.79 Z" />
<path fill="#a2611a" d=" M 511.59 70.24 C 512.39 69.29 513.21 68.33 513.98 67.35 C 514.22 67.52 514.68 67.86 514.91 68.03 C 514.59 68.23 513.95 68.63 513.64 68.83 C 513.45 69.23 513.08 70.03 512.89 70.43 C 512.56 70.82 511.90 71.61 511.57 72.01 C 511.31 72.26 510.78 72.76 510.51 73.01 C 508.41 74.85 506.53 77.11 503.90 78.21 C 501.75 78.88 499.48 78.89 497.27 79.10 C 497.68 78.52 498.49 77.37 498.90 76.79 C 499.63 77.31 500.37 77.84 501.11 78.37 L 502.24 77.95 C 504.77 77.19 506.81 75.45 508.61 73.59 C 509.63 72.49 510.60 71.36 511.59 70.24 Z" />
<path fill="#b5942f" d=" M 30.38 69.31 C 31.79 68.42 32.30 70.08 33.01 70.99 C 32.46 71.14 31.37 71.44 30.82 71.59 C 31.63 72.81 32.62 73.90 33.66 74.93 L 31.89 75.55 C 30.34 74.86 28.16 73.10 26.68 74.85 L 26.08 75.45 C 25.46 74.29 24.96 73.07 24.58 71.80 C 26.55 72.25 28.48 72.88 30.35 73.65 C 29.89 72.14 29.90 70.69 30.38 69.31 Z" />
<path fill="#a2611a" d=" M 34.93 71.53 C 35.86 70.37 37.00 68.32 38.77 69.21 C 38.94 70.63 39.06 72.06 39.11 73.50 C 39.53 73.31 40.38 72.94 40.80 72.75 C 39.82 73.93 38.92 75.17 38.01 76.40 C 38.69 76.38 40.06 76.33 40.74 76.30 C 41.16 76.37 42.00 76.52 42.42 76.60 C 41.20 77.06 40.00 77.57 38.81 78.09 C 37.46 76.97 36.10 75.87 34.72 74.79 C 34.77 73.70 34.84 72.61 34.93 71.53 Z" />
<path fill="#d0e8e2" d=" M 73.23 68.38 C 74.32 69.24 75.44 70.07 76.55 70.91 C 77.05 72.82 78.30 74.24 79.87 75.36 L 79.95 75.93 C 79.08 77.00 78.23 78.10 77.41 79.22 C 76.26 78.92 74.15 78.85 75.71 77.35 C 76.59 76.67 77.26 75.60 76.51 74.52 C 75.33 72.52 73.92 70.64 73.23 68.38 Z" />
<path fill="#cbb428" d=" M 81.34 74.97 C 84.31 73.64 85.47 70.28 88.28 68.81 C 87.32 69.93 86.38 71.06 85.44 72.19 C 87.62 72.61 90.35 72.16 92.11 73.83 C 93.48 75.07 93.00 77.06 93.11 78.69 L 92.32 79.46 L 92.20 78.22 C 92.13 77.42 91.98 75.82 91.91 75.02 C 88.05 72.83 83.30 74.02 80.94 77.77 C 80.03 78.82 78.85 79.31 77.41 79.22 C 78.23 78.10 79.08 77.00 79.95 75.93 C 80.30 75.69 80.99 75.21 81.34 74.97 Z" />
<path fill="#432900" d=" M 88.28 68.81 L 88.52 68.66 C 90.91 71.78 95.51 71.13 98.14 74.00 C 99.03 77.38 95.89 78.67 93.11 78.69 C 93.00 77.06 93.48 75.07 92.11 73.83 C 90.35 72.16 87.62 72.61 85.44 72.19 C 86.38 71.06 87.32 69.93 88.28 68.81 Z" />
<path fill="#b49e20" d=" M 431.37 70.85 C 431.82 70.25 432.71 69.04 433.15 68.44 C 436.85 69.51 437.92 73.75 441.36 75.27 C 441.64 75.47 442.22 75.88 442.51 76.08 C 443.41 77.03 444.28 78.02 445.18 78.99 C 444.50 78.99 443.16 78.99 442.48 78.99 C 440.45 76.32 437.72 73.35 433.99 73.99 C 431.25 73.76 430.43 76.77 430.37 78.93 C 430.01 78.93 429.28 78.94 428.92 78.94 C 429.37 76.97 429.09 74.30 431.27 73.27 C 433.18 72.65 435.19 72.51 437.17 72.17 C 436.47 70.84 435.43 70.06 434.06 69.85 C 433.39 70.10 432.04 70.60 431.37 70.85 Z" />
<path fill="#d8c067" d=" M 484.13 69.24 C 487.33 69.55 487.78 73.15 486.75 75.62 C 485.83 74.80 484.92 73.98 484.01 73.17 C 483.58 71.82 483.63 70.51 484.13 69.24 Z" />
<path fill="#d2b95d" d=" M 487.96 75.42 C 487.35 72.61 489.58 70.00 492.00 68.89 C 492.48 70.30 492.39 71.57 491.73 72.68 C 490.47 73.59 489.21 74.51 487.96 75.42 Z" />
<path fill="#392500" d=" M 431.37 70.85 C 432.04 70.60 433.39 70.10 434.06 69.85 C 435.43 70.06 436.47 70.84 437.17 72.17 C 435.19 72.51 433.18 72.65 431.27 73.27 C 429.09 74.30 429.37 76.97 428.92 78.94 C 426.98 79.20 425.10 78.64 423.27 78.08 C 423.68 76.59 424.10 75.09 424.51 73.59 C 426.67 72.37 429.01 71.56 431.37 70.85 Z" />
<path fill="#ebd494" d=" M 30.82 71.59 C 31.37 71.44 32.46 71.14 33.01 70.99 C 34.12 71.91 34.16 73.46 34.06 74.79 L 33.66 74.93 C 32.62 73.90 31.63 72.81 30.82 71.59 Z" />
<path fill="#432900" d=" M 33.01 70.99 C 33.49 71.12 34.45 71.39 34.93 71.53 C 34.84 72.61 34.77 73.70 34.72 74.79 C 36.10 75.87 37.46 76.97 38.81 78.09 L 37.32 78.74 C 37.05 78.70 36.52 78.62 36.25 78.58 C 35.79 76.58 31.85 76.36 32.78 78.89 C 32.45 78.52 31.79 77.78 31.46 77.41 C 31.34 77.86 31.23 78.32 31.12 78.78 C 30.03 77.39 28.59 76.51 26.81 76.47 C 26.78 76.06 26.71 75.26 26.68 74.85 C 27.95 76.59 30.20 76.67 31.89 75.55 L 33.66 74.93 L 34.06 74.79 C 34.16 73.46 34.12 71.91 33.01 70.99 Z" />
<path fill="#e0ce8f" d=" M 37.21 70.87 C 38.57 71.06 38.41 73.48 37.12 73.67 C 35.81 73.41 35.95 71.11 37.21 70.87 Z" />
<path fill="#0baf21" d=" M 0.64 78.92 C 3.04 75.15 8.00 74.25 11.61 71.90 C 11.65 73.28 11.69 74.65 11.74 76.02 C 12.43 76.89 13.10 77.77 13.76 78.67 C 9.43 79.38 5.00 78.91 0.64 78.92 Z" />
<path fill="#ceba59" d=" M 40.80 72.75 C 41.87 72.52 42.95 72.33 44.04 72.18 C 43.74 74.09 42.56 75.61 40.74 76.30 C 40.06 76.33 38.69 76.38 38.01 76.40 C 38.92 75.17 39.82 73.93 40.80 72.75 Z" />
<path fill="#867515" d=" M 496.10 72.25 C 499.64 71.84 496.15 75.18 496.42 76.91 C 495.88 76.94 494.81 77.00 494.27 77.03 C 495.07 75.82 495.85 74.59 496.60 73.34 L 496.16 72.75 L 496.10 72.25 Z" />
<path fill="#0eb425" d=" M 510.51 73.01 C 510.78 72.76 511.31 72.26 511.57 72.01 C 514.24 74.16 519.38 74.55 519.22 78.88 C 515.73 78.82 512.23 78.82 508.75 78.98 C 509.90 77.19 511.40 75.31 510.51 73.01 Z" />
<path fill="#93701d" d=" M 478.02 71.91 L 478.71 72.68 C 480.19 74.61 482.03 76.23 484.26 77.26 C 483.54 75.69 482.78 74.13 481.96 72.61 C 482.47 72.75 483.50 73.03 484.01 73.17 C 484.92 73.98 485.83 74.80 486.75 75.62 L 486.89 75.75 C 485.42 76.16 484.97 77.51 484.53 78.80 C 482.95 78.10 481.37 77.42 479.75 76.84 C 479.42 75.12 478.84 73.48 478.02 71.91 Z" />
<path fill="#ddc481" d=" M 478.71 72.68 C 479.52 72.66 481.15 72.62 481.96 72.61 C 482.78 74.13 483.54 75.69 484.26 77.26 C 482.03 76.23 480.19 74.61 478.71 72.68 Z" />
<path fill="#9c7526" d=" M 487.96 75.42 C 489.21 74.51 490.47 73.59 491.73 72.68 C 492.31 72.79 493.47 72.99 494.05 73.10 C 493.15 73.76 492.27 74.44 491.40 75.13 C 492.19 75.30 493.76 75.65 494.55 75.83 C 493.80 76.85 493.05 77.86 492.31 78.88 L 492.03 79.26 C 491.62 78.19 491.23 77.13 490.83 76.06 C 490.10 75.91 488.64 75.60 487.91 75.45 L 487.96 75.42 Z" />
<path fill="#dec176" d=" M 494.05 73.10 L 495.35 72.26 L 496.16 72.75 L 496.60 73.34 C 495.85 74.59 495.07 75.82 494.27 77.03 C 494.81 77.00 495.88 76.94 496.42 76.91 L 498.90 76.79 C 498.49 77.37 497.68 78.52 497.27 79.10 C 495.61 79.02 493.96 78.95 492.31 78.88 C 493.05 77.86 493.80 76.85 494.55 75.83 C 493.76 75.65 492.19 75.30 491.40 75.13 C 492.27 74.44 493.15 73.76 494.05 73.10 Z" />
<path fill="#e4cc69" d=" M 26.68 74.85 C 28.16 73.10 30.34 74.86 31.89 75.55 C 30.20 76.67 27.95 76.59 26.68 74.85 Z" />
<path fill="#000001" d=" M 80.94 77.77 C 83.30 74.02 88.05 72.83 91.91 75.02 C 91.98 75.82 92.13 77.42 92.20 78.22 C 88.40 79.54 84.33 78.93 80.41 78.87 L 80.94 77.77 Z" />
<path fill="#000001" d=" M 430.37 78.93 C 430.43 76.77 431.25 73.76 433.99 73.99 C 437.72 73.35 440.45 76.32 442.48 78.99 C 438.44 79.09 434.40 79.08 430.37 78.93 Z" />
<path fill="#09a91e" d=" M 469.61 74.30 L 470.77 74.09 C 471.79 75.27 472.84 76.43 473.91 77.58 L 474.75 78.48 C 469.02 79.13 463.20 79.19 457.46 78.65 C 460.83 76.00 465.12 75.08 469.25 74.36 C 469.34 74.35 469.52 74.32 469.61 74.30 Z" />
<path fill="#08a81a" d=" M 49.65 78.76 C 51.25 77.44 52.68 75.93 54.14 74.46 C 57.86 75.45 62.04 76.09 64.86 78.91 C 59.79 78.99 54.70 79.23 49.65 78.76 Z" />
<path fill="#e5d06f" d=" M 21.73 78.09 C 23.33 77.29 25.00 76.56 26.81 76.47 C 28.59 76.51 30.03 77.39 31.12 78.78 C 27.99 79.09 24.69 79.38 21.73 78.09 Z" />
<path fill="#b38822" d=" M 32.78 78.89 C 31.85 76.36 35.79 76.58 36.25 78.58 C 35.39 78.66 33.65 78.81 32.78 78.89 Z" />
<path fill="#e4cc69" d=" M 42.42 76.60 C 44.19 76.67 45.79 77.50 47.41 78.13 C 44.17 79.32 40.68 79.16 37.32 78.74 L 38.81 78.09 C 40.00 77.57 41.20 77.06 42.42 76.60 Z" />
<path fill="#d3b32b" d=" M 478.38 78.93 C 476.99 80.05 475.35 77.04 477.35 76.90 C 477.60 77.41 478.12 78.42 478.38 78.93 Z" />
<path fill="#e7c974" d=" M 477.35 76.90 L 479.75 76.84 C 481.37 77.42 482.95 78.10 484.53 78.80 C 482.48 78.92 480.42 78.95 478.38 78.93 C 478.12 78.42 477.60 77.41 477.35 76.90 Z" />
<path fill="#b5941a" d=" M 486.87 77.14 C 487.86 76.01 490.67 77.20 489.64 78.72 C 488.62 79.80 485.64 78.73 486.87 77.14 Z" />
<path fill="#af7a12" d=" M 72.00 78.02 C 75.04 76.45 72.28 81.26 72.00 78.02 Z" />
</svg>
