<?xml version="1.0" encoding="UTF-8" ?>
<!DOCTYPE svg PUBLIC "-//W3C//DTD SVG 1.1//EN" "http://www.w3.org/Graphics/SVG/1.1/DTD/svg11.dtd">
<svg width="525pt" height="81pt" viewBox="0 0 525 81" version="1.1" xmlns="http://www.w3.org/2000/svg">
<path fill="#fffce9" d=" M 0.00 0.00 L 525.00 0.00 L 525.00 0.45 C 387.67 0.36 250.33 0.46 113.00 0.42 C 75.33 0.68 37.65 0.02 0.00 0.59 L 0.00 0.00 Z" />
<path fill="#307033" d=" M 0.00 0.59 C 37.65 0.02 75.33 0.68 113.00 0.42 C 250.33 0.46 387.67 0.36 525.00 0.45 L 525.00 81.00 L 0.33 81.00 C 0.25 80.91 0.08 80.73 0.00 80.64 L 0.00 0.59 Z" />
<path fill="#37b850" d=" M 2.13 2.28 C 6.62 1.99 11.13 2.06 15.63 2.18 C 14.26 3.49 13.70 5.21 13.64 7.08 C 13.49 7.50 13.17 8.33 13.02 8.74 C 11.18 7.82 9.36 6.88 7.62 5.80 C 5.95 4.75 4.31 3.66 2.64 2.61 L 2.13 2.28 Z" />
<path fill="#836a00" d=" M 20.83 2.57 C 21.31 2.38 22.26 2.00 22.74 1.80 C 23.08 2.25 23.76 3.15 24.09 3.60 L 23.37 3.72 C 22.73 3.43 21.46 2.86 20.83 2.57 Z" />
<path fill="#cdc075" d=" M 22.74 1.80 C 25.85 3.27 29.38 1.39 32.69 2.05 C 30.96 4.00 28.49 4.77 25.93 4.38 C 25.47 4.18 24.55 3.79 24.09 3.60 C 23.76 3.15 23.08 2.25 22.74 1.80 Z" />
<path fill="#887826" d=" M 32.69 2.05 C 33.28 2.06 34.45 2.07 35.04 2.07 C 34.60 4.76 38.31 4.73 38.02 2.10 L 38.90 1.46 C 39.31 1.58 40.14 1.81 40.56 1.93 C 40.56 2.59 40.56 3.91 40.57 4.57 C 42.43 4.56 44.29 4.55 46.15 4.44 C 45.29 4.92 44.42 5.41 43.56 5.90 C 42.23 5.69 40.90 5.52 39.57 5.38 C 39.95 6.01 40.73 7.25 41.12 7.87 C 41.13 9.28 41.12 10.68 41.09 12.09 C 40.35 12.11 38.85 12.15 38.11 12.17 L 37.53 11.27 C 38.31 11.34 39.87 11.48 40.65 11.55 C 41.37 8.55 38.58 7.28 36.43 6.13 C 36.65 7.65 36.90 9.18 37.17 10.70 C 36.81 10.82 36.09 11.07 35.73 11.19 C 35.41 9.35 34.98 7.53 34.38 5.76 C 33.49 6.86 32.60 7.97 31.72 9.08 C 29.81 9.08 27.90 9.08 25.98 9.07 L 26.01 8.15 C 26.36 7.86 27.06 7.28 27.41 6.99 L 27.55 8.83 C 30.20 8.62 33.72 7.16 32.53 3.87 C 31.34 4.49 30.15 5.13 28.99 5.79 C 27.97 5.32 26.96 4.84 25.93 4.38 C 28.49 4.77 30.96 4.00 32.69 2.05 Z" />
<path fill="#b99d3e" d=" M 35.04 2.07 C 35.78 2.08 37.28 2.09 38.02 2.10 C 38.31 4.73 34.60 4.76 35.04 2.07 Z" />
<path fill="#d6c070" d=" M 40.56 1.93 C 42.26 1.94 43.97 1.86 45.67 1.97 C 46.33 2.29 47.66 2.93 48.33 3.25 C 47.78 3.55 46.70 4.14 46.15 4.44 C 44.29 4.55 42.43 4.56 40.57 4.57 C 40.56 3.91 40.56 2.59 40.56 1.93 Z" />
<path fill="#836a00" d=" M 45.67 1.97 C 47.47 1.54 49.32 1.35 51.16 1.25 L 51.81 2.04 C 53.13 3.63 54.47 5.20 55.81 6.78 C 55.40 6.92 54.56 7.21 54.14 7.35 C 53.93 6.97 53.51 6.20 53.30 5.82 C 52.55 4.79 51.74 3.82 50.93 2.83 C 49.08 4.04 47.15 5.22 45.71 6.94 L 45.17 6.68 C 44.77 6.49 43.96 6.10 43.56 5.90 C 44.42 5.41 45.29 4.92 46.15 4.44 C 46.70 4.14 47.78 3.55 48.33 3.25 C 47.66 2.93 46.33 2.29 45.67 1.97 Z" />
<path fill="#30bc4b" d=" M 51.81 2.04 C 56.97 2.19 62.13 1.92 67.29 2.22 C 63.83 4.56 59.80 5.70 55.81 6.78 C 54.47 5.20 53.13 3.63 51.81 2.04 Z" />
<path fill="#8d702a" d=" M 67.29 2.22 C 68.14 2.24 69.82 2.29 70.67 2.31 C 66.81 5.61 62.10 7.51 57.24 8.79 C 57.49 9.39 57.99 10.61 58.23 11.22 C 57.10 10.24 55.96 9.28 54.82 8.31 C 52.76 11.96 50.99 15.97 47.55 18.56 C 42.41 23.16 35.07 23.74 28.52 22.90 C 28.16 24.53 27.81 26.16 27.31 27.76 C 27.26 25.86 27.16 23.97 27.07 22.08 C 36.18 23.39 47.71 20.91 51.66 11.62 L 50.08 12.14 C 51.12 10.30 52.26 8.45 54.14 7.35 C 54.56 7.21 55.40 6.92 55.81 6.78 C 59.80 5.70 63.83 4.56 67.29 2.22 Z" />
<path fill="#d8eed7" d=" M 70.67 2.31 C 71.05 2.13 71.80 1.76 72.18 1.58 C 72.30 2.31 72.53 3.77 72.65 4.50 C 73.85 4.54 75.06 4.57 76.26 4.60 C 76.61 3.91 77.31 2.54 77.66 1.85 C 77.97 1.90 78.60 2.01 78.91 2.06 C 79.32 2.51 80.14 3.40 80.55 3.85 C 80.43 4.37 80.18 5.39 80.05 5.90 C 78.49 9.47 75.13 11.62 72.59 14.42 C 70.87 14.38 69.12 14.01 67.42 14.40 C 66.08 15.75 64.91 17.26 63.58 18.62 C 63.36 18.85 62.93 19.31 62.72 19.54 C 61.52 17.35 60.13 15.26 58.82 13.13 C 58.93 12.89 59.14 12.41 59.24 12.16 C 58.99 11.93 58.49 11.45 58.23 11.22 C 57.99 10.61 57.49 9.39 57.24 8.79 C 62.10 7.51 66.81 5.61 70.67 2.31 Z" />
<path fill="#836a00" d=" M 72.18 1.58 C 74.01 1.35 75.86 1.34 77.66 1.85 C 77.31 2.54 76.61 3.91 76.26 4.60 C 75.06 4.57 73.85 4.54 72.65 4.50 C 72.53 3.77 72.30 2.31 72.18 1.58 Z" />
<path fill="#b9a933" d=" M 78.91 2.06 C 79.55 1.98 80.81 1.82 81.44 1.74 C 83.39 4.19 85.55 7.24 88.97 7.49 C 91.10 7.70 94.20 6.83 93.74 4.12 C 93.91 3.42 94.26 2.03 94.43 1.33 C 94.63 3.24 94.80 5.16 94.95 7.07 C 92.48 8.26 89.90 9.15 87.28 9.94 C 85.63 8.18 83.70 6.71 81.78 5.26 C 81.31 5.78 80.38 6.83 79.91 7.36 C 79.94 6.99 80.02 6.27 80.05 5.90 C 80.18 5.39 80.43 4.37 80.55 3.85 C 80.14 3.40 79.32 2.51 78.91 2.06 Z" />
<path fill="#1f2028" d=" M 81.44 1.74 C 85.41 1.49 89.38 1.50 93.35 1.68 C 93.45 2.29 93.64 3.51 93.74 4.12 C 94.20 6.83 91.10 7.70 88.97 7.49 C 85.55 7.24 83.39 4.19 81.44 1.74 Z" />
<path fill="#806d00" d=" M 94.43 1.33 C 97.37 1.45 100.37 1.16 103.25 1.94 C 101.31 3.18 100.65 5.40 100.16 7.51 C 97.16 9.79 93.37 10.52 90.20 12.51 C 88.93 12.12 88.27 10.73 87.28 9.94 C 89.90 9.15 92.48 8.26 94.95 7.07 C 94.80 5.16 94.63 3.24 94.43 1.33 Z" />
<path fill="#fffce9" d=" M 103.25 1.94 C 209.77 2.07 316.30 1.98 422.82 1.99 C 426.13 3.90 425.42 9.27 429.63 10.06 C 430.93 10.56 432.26 11.00 433.59 11.44 C 433.95 11.91 434.66 12.87 435.02 13.34 C 436.38 12.82 438.03 12.58 438.81 11.16 C 440.59 8.59 443.28 6.94 445.94 5.41 C 446.73 7.83 447.73 11.01 450.90 10.85 C 451.36 12.91 452.97 14.35 454.25 15.92 C 452.22 16.85 449.26 16.86 448.22 19.13 C 447.96 20.83 447.87 22.70 448.63 24.29 C 451.23 25.78 454.02 27.07 456.95 27.75 C 458.60 27.35 460.13 26.60 461.73 26.03 C 463.99 29.43 466.36 32.80 469.58 35.37 C 468.51 36.42 467.44 37.46 466.38 38.51 C 466.37 39.04 466.33 40.08 466.31 40.61 C 467.40 41.57 468.49 42.52 469.60 43.47 C 466.46 46.48 463.79 49.94 461.43 53.59 C 460.03 52.65 458.88 50.69 456.95 50.99 C 454.06 51.89 451.20 53.04 448.65 54.68 C 448.20 56.58 448.19 58.57 448.49 60.50 C 450.04 61.80 452.35 61.82 453.83 63.20 C 453.34 65.47 450.98 66.93 449.61 68.75 C 449.14 69.01 448.21 69.51 447.74 69.77 C 447.06 72.32 445.24 74.10 442.97 75.32 C 441.72 74.30 440.45 73.29 439.32 72.14 C 438.24 71.17 437.44 69.79 436.02 69.28 C 435.01 69.84 434.01 70.44 433.05 71.07 C 430.89 71.82 428.53 72.33 426.77 73.86 C 425.68 75.76 424.95 77.82 424.07 79.82 C 319.40 79.73 214.72 79.81 110.05 79.77 C 107.66 79.76 105.28 79.71 102.90 79.87 C 101.84 77.90 100.87 75.87 100.10 73.77 C 97.65 70.78 92.66 71.90 90.81 68.46 C 88.47 69.25 87.35 71.38 86.74 73.61 C 84.75 73.75 82.77 73.95 80.80 74.18 C 80.13 69.33 75.17 67.23 72.33 63.78 C 74.07 62.76 75.89 61.85 77.53 60.66 C 77.91 58.25 78.46 54.46 75.28 53.83 C 72.34 52.72 68.07 49.25 65.83 53.28 C 63.06 49.78 60.44 46.13 57.06 43.17 C 58.28 41.78 59.51 40.40 60.73 39.01 C 59.70 37.79 58.66 36.58 57.63 35.36 C 60.80 32.46 63.72 29.24 65.74 25.42 C 69.22 28.94 73.69 25.77 77.18 24.08 C 79.25 23.23 78.09 20.61 78.04 18.96 C 77.67 16.28 74.37 16.19 72.41 15.38 C 74.88 12.68 78.15 10.63 79.91 7.36 C 80.38 6.83 81.31 5.78 81.78 5.26 C 83.70 6.71 85.63 8.18 87.28 9.94 C 88.27 10.73 88.93 12.12 90.20 12.51 C 93.37 10.52 97.16 9.79 100.16 7.51 C 100.65 5.40 101.31 3.18 103.25 1.94 Z" />
<path fill="#7a6b00" d=" M 422.82 1.99 C 426.05 1.04 429.46 1.45 432.79 1.19 C 432.87 1.66 433.03 2.61 433.11 3.09 C 432.97 3.87 432.68 5.42 432.53 6.20 C 432.13 5.95 431.32 5.44 430.91 5.19 C 432.03 8.55 435.33 9.60 438.54 9.93 C 437.88 10.72 437.22 11.52 436.57 12.32 C 434.55 10.79 432.10 10.27 429.63 10.06 C 425.42 9.27 426.13 3.90 422.82 1.99 Z" />
<path fill="#212123" d=" M 433.11 3.09 C 435.92 -0.10 440.93 2.21 444.69 1.63 L 444.26 2.98 C 442.26 6.47 438.53 8.56 434.49 7.94 C 434.00 7.51 433.02 6.64 432.53 6.20 C 432.68 5.42 432.97 3.87 433.11 3.09 Z" />
<path fill="#b9ad44" d=" M 444.26 2.98 C 444.90 2.00 445.82 1.69 447.04 2.03 C 445.70 5.47 448.81 8.47 450.90 10.85 C 447.73 11.01 446.73 7.83 445.94 5.41 C 443.28 6.94 440.59 8.59 438.81 11.16 C 438.03 12.58 436.38 12.82 435.02 13.34 C 434.66 12.87 433.95 11.91 433.59 11.44 C 432.26 11.00 430.93 10.56 429.63 10.06 C 432.10 10.27 434.55 10.79 436.57 12.32 C 437.22 11.52 437.88 10.72 438.54 9.93 C 435.33 9.60 432.03 8.55 430.91 5.19 C 431.32 5.44 432.13 5.95 432.53 6.20 C 433.02 6.64 434.00 7.51 434.49 7.94 C 438.53 8.56 442.26 6.47 444.26 2.98 Z" />
<path fill="#d7edd5" d=" M 447.04 2.03 C 447.50 1.99 448.40 1.90 448.85 1.86 C 448.94 4.27 450.41 5.77 452.80 5.81 C 453.44 4.64 454.04 3.46 454.67 2.28 L 455.07 2.08 C 458.82 5.60 463.50 7.89 468.53 8.90 C 468.56 9.68 468.60 11.22 468.63 12.00 C 468.64 12.83 468.69 13.65 468.76 14.48 C 466.29 14.37 465.67 17.20 464.25 18.67 C 464.03 18.96 463.57 19.54 463.35 19.84 C 461.40 17.07 459.12 14.25 455.44 14.19 C 454.04 12.92 452.56 11.75 450.90 10.85 C 448.81 8.47 445.70 5.47 447.04 2.03 Z" />
<path fill="#755303" d=" M 448.85 1.86 C 450.92 0.78 451.83 1.41 451.56 3.77 C 451.58 3.20 451.63 2.06 451.66 1.49 C 453.24 1.40 454.84 1.38 456.43 1.43 L 455.07 2.08 L 454.67 2.28 C 454.04 3.46 453.44 4.64 452.80 5.81 C 450.41 5.77 448.94 4.27 448.85 1.86 Z" />
<path fill="#8d702a" d=" M 456.43 1.43 C 456.84 1.63 457.65 2.03 458.06 2.23 C 461.88 4.38 465.89 6.25 470.17 7.29 C 470.93 7.48 471.69 7.68 472.46 7.87 C 473.40 8.43 474.23 9.11 474.97 9.92 C 475.01 10.31 475.10 11.09 475.14 11.48 C 475.17 12.03 475.24 13.13 475.28 13.68 C 478.10 17.29 481.73 20.57 486.25 21.79 C 490.36 22.98 494.67 22.52 498.87 22.30 C 499.41 24.70 499.67 27.15 499.89 29.60 C 498.79 27.72 498.32 25.59 497.90 23.49 C 491.35 24.06 484.11 23.63 478.88 19.16 C 475.66 16.71 474.04 12.95 472.09 9.55 C 470.47 9.58 469.31 10.40 468.63 12.00 C 468.60 11.22 468.56 9.68 468.53 8.90 C 463.50 7.89 458.82 5.60 455.07 2.08 L 456.43 1.43 Z" />
<path fill="#3cba48" d=" M 458.06 2.23 C 463.80 2.02 469.55 2.13 475.30 1.96 C 473.52 3.67 471.82 5.46 470.17 7.29 C 465.89 6.25 461.88 4.38 458.06 2.23 Z" />
<path fill="#7f6800" d=" M 475.30 1.96 L 475.98 1.30 C 477.90 1.48 480.06 1.04 481.67 2.41 C 481.23 2.53 480.35 2.78 479.92 2.90 C 477.67 2.29 477.77 5.25 479.90 4.89 C 481.83 5.14 483.78 5.28 485.74 5.29 C 485.80 4.55 485.91 3.07 485.97 2.34 L 486.71 1.32 C 487.21 1.40 488.19 1.57 488.68 1.65 C 488.65 2.65 488.61 3.64 488.57 4.64 C 489.77 4.51 490.97 4.39 492.18 4.26 C 492.02 4.58 491.70 5.23 491.55 5.56 C 489.60 8.31 490.84 11.26 493.19 13.26 C 493.92 12.08 494.33 10.80 494.41 9.42 C 494.78 9.42 495.51 9.42 495.87 9.42 C 496.76 9.38 498.54 9.30 499.42 9.26 C 498.96 8.11 498.50 6.97 498.04 5.83 L 497.95 5.62 C 499.22 5.09 500.67 4.83 501.78 3.97 C 501.54 2.64 499.41 2.76 498.46 2.08 C 502.11 0.27 506.04 1.98 509.25 3.87 C 509.30 4.40 509.41 5.46 509.46 5.99 C 507.73 5.08 505.96 4.26 504.19 3.43 C 502.86 4.34 501.53 5.25 500.21 6.16 C 500.29 7.61 500.38 9.06 500.47 10.52 C 499.58 10.32 497.81 9.92 496.92 9.72 C 495.74 11.18 494.51 12.60 493.24 13.98 C 492.22 13.14 491.21 12.30 490.20 11.47 C 488.80 12.05 487.51 14.29 485.86 13.28 C 485.09 12.35 484.46 11.32 483.81 10.32 C 482.25 10.36 480.69 10.40 479.15 10.45 C 479.67 8.99 480.21 7.53 480.74 6.07 C 478.95 5.39 477.23 4.13 475.26 4.18 C 473.43 4.41 473.24 6.59 472.46 7.87 C 471.69 7.68 470.93 7.48 470.17 7.29 C 471.82 5.46 473.52 3.67 475.30 1.96 Z" />
<path fill="#d6bb8b" d=" M 481.67 2.41 C 483.08 2.13 484.53 2.33 485.97 2.34 C 485.91 3.07 485.80 4.55 485.74 5.29 C 483.78 5.28 481.83 5.14 479.90 4.89 C 479.90 4.39 479.91 3.40 479.92 2.90 C 480.35 2.78 481.23 2.53 481.67 2.41 Z" />
<path fill="#c8af6e" d=" M 488.68 1.65 C 489.30 1.76 490.54 1.97 491.16 2.08 C 491.41 2.63 491.92 3.71 492.18 4.26 C 490.97 4.39 489.77 4.51 488.57 4.64 C 488.61 3.64 488.65 2.65 488.68 1.65 Z" />
<path fill="#7f6800" d=" M 491.16 2.08 C 492.28 1.06 493.41 1.03 494.55 1.97 L 494.29 2.47 C 494.09 2.95 493.68 3.91 493.48 4.39 L 493.39 4.93 C 493.09 4.76 492.48 4.43 492.18 4.26 C 491.92 3.71 491.41 2.63 491.16 2.08 Z" />
<path fill="#c8af6e" d=" M 494.55 1.97 C 495.85 1.90 497.15 1.94 498.46 2.08 C 499.41 2.76 501.54 2.64 501.78 3.97 C 500.67 4.83 499.22 5.09 497.95 5.62 C 497.14 4.20 495.97 2.80 494.29 2.47 L 494.55 1.97 Z" />
<path fill="#36b74b" d=" M 510.16 2.11 C 514.84 1.99 519.53 1.93 524.22 2.14 L 523.94 2.99 C 520.63 5.72 516.90 8.04 512.75 9.25 C 512.55 7.69 512.38 6.13 512.11 4.59 C 511.92 3.51 510.78 2.93 510.16 2.11 Z" />
<path fill="#3ab54a" d=" M 2.64 2.61 C 4.31 3.66 5.95 4.75 7.62 5.80 C 7.56 6.21 7.44 7.02 7.38 7.42 C 8.81 8.21 10.24 9.00 11.67 9.80 C 11.06 10.72 10.46 11.65 9.88 12.58 C 8.22 13.70 5.99 14.68 5.74 16.94 C 6.05 19.64 7.37 22.43 6.07 25.07 C 4.56 28.64 8.96 31.01 11.19 33.00 C 12.08 33.87 12.92 34.81 13.72 35.76 C 13.59 36.31 13.34 37.42 13.21 37.97 C 12.42 38.67 11.63 39.38 10.84 40.09 C 11.73 41.09 12.62 42.09 13.53 43.09 C 13.10 44.32 12.68 45.56 12.19 46.77 C 10.06 48.79 7.09 50.15 5.85 52.95 C 5.71 54.48 6.35 55.94 6.57 57.44 C 7.12 59.88 4.93 62.35 6.22 64.70 C 7.01 66.54 8.89 67.49 10.51 68.46 C 10.73 69.08 11.16 70.31 11.38 70.92 C 8.26 72.52 5.20 74.24 2.06 75.80 C 2.02 57.55 2.13 39.30 2.07 21.05 C 2.23 14.90 1.61 8.71 2.64 2.61 Z" />
<path fill="#38b54b" d=" M 16.46 11.51 C 16.22 7.95 17.66 4.40 20.83 2.57 C 21.46 2.86 22.73 3.43 23.37 3.72 C 24.21 4.53 25.01 5.38 25.78 6.26 C 25.84 6.73 25.96 7.68 26.01 8.15 L 25.98 9.07 L 25.95 9.94 C 27.39 9.99 28.83 10.05 30.26 10.11 C 30.95 11.73 31.97 13.12 33.53 13.96 C 34.24 13.02 34.98 12.10 35.73 11.19 C 36.09 11.07 36.81 10.82 37.17 10.70 L 37.53 11.27 L 38.11 12.17 C 39.29 15.44 42.16 12.28 42.42 10.16 C 44.36 10.01 46.30 9.85 48.23 9.66 C 47.42 8.73 46.58 7.82 45.71 6.94 C 47.15 5.22 49.08 4.04 50.93 2.83 C 51.74 3.82 52.55 4.79 53.30 5.82 C 50.10 9.41 47.77 14.40 42.68 15.61 C 36.49 17.91 30.49 14.15 24.33 13.96 C 22.80 13.39 21.27 12.80 19.75 12.19 C 19.30 12.63 18.39 13.51 17.94 13.95 C 17.55 13.26 17.13 12.59 16.68 11.93 L 16.46 11.51 Z" />
<path fill="#cda62e" d=" M 479.90 4.89 C 477.77 5.25 477.67 2.29 479.92 2.90 C 479.91 3.40 479.90 4.39 479.90 4.89 Z" />
<path fill="#836a00" d=" M 493.48 4.39 C 493.68 3.91 494.09 2.95 494.29 2.47 C 495.97 2.80 497.14 4.20 497.95 5.62 L 498.04 5.83 C 496.56 5.21 495.02 4.80 493.48 4.39 Z" />
<path fill="#7a460d" d=" M 512.75 9.25 C 516.90 8.04 520.63 5.72 523.94 2.99 C 523.88 3.54 523.76 4.64 523.71 5.19 C 520.94 6.89 518.16 8.55 515.33 10.13 C 514.93 10.32 514.13 10.70 513.73 10.89 C 511.96 11.63 510.15 12.28 508.36 12.94 C 508.81 14.22 509.27 15.50 509.73 16.78 C 506.98 18.76 503.98 20.72 502.45 23.86 C 502.09 25.88 502.96 27.81 503.44 29.74 L 503.50 30.60 C 502.45 28.30 501.03 25.70 502.12 23.14 C 503.47 20.00 506.64 18.27 509.14 16.14 C 508.33 15.14 507.52 14.14 506.72 13.14 C 499.54 15.17 492.36 19.44 484.67 17.38 C 480.77 16.87 477.67 14.32 475.14 11.48 C 475.10 11.09 475.01 10.31 474.97 9.92 C 477.47 12.69 480.01 15.93 483.93 16.61 C 493.01 19.43 501.51 13.62 509.90 11.00 C 510.31 10.85 511.13 10.55 511.54 10.40 C 511.47 8.45 511.25 6.42 512.11 4.59 C 512.38 6.13 512.55 7.69 512.75 9.25 Z" />
<path fill="#5f8c1e" d=" M 23.37 3.72 L 24.09 3.60 C 24.55 3.79 25.47 4.18 25.93 4.38 C 26.96 4.84 27.97 5.32 28.99 5.79 C 28.59 6.09 27.80 6.69 27.41 6.99 C 27.06 7.28 26.36 7.86 26.01 8.15 C 25.96 7.68 25.84 6.73 25.78 6.26 C 25.01 5.38 24.21 4.53 23.37 3.72 Z" />
<path fill="#37b84e" d=" M 475.26 4.18 C 477.23 4.13 478.95 5.39 480.74 6.07 C 480.21 7.53 479.67 8.99 479.15 10.45 C 480.69 10.40 482.25 10.36 483.81 10.32 C 484.46 11.32 485.09 12.35 485.86 13.28 C 487.51 14.29 488.80 12.05 490.20 11.47 C 491.21 12.30 492.22 13.14 493.24 13.98 C 494.51 12.60 495.74 11.18 496.92 9.72 C 497.81 9.92 499.58 10.32 500.47 10.52 C 500.38 9.06 500.29 7.61 500.21 6.16 C 501.53 5.25 502.86 4.34 504.19 3.43 C 505.96 4.26 507.73 5.08 509.46 5.99 C 509.76 7.64 509.79 9.33 509.90 11.00 C 501.51 13.62 493.01 19.43 483.93 16.61 C 480.01 15.93 477.47 12.69 474.97 9.92 C 474.23 9.11 473.40 8.43 472.46 7.87 C 473.24 6.59 473.43 4.41 475.26 4.18 Z" />
<path fill="#836a00" d=" M 492.18 4.26 C 492.48 4.43 493.09 4.76 493.39 4.93 C 493.28 5.41 493.05 6.36 492.94 6.83 C 492.59 6.51 491.89 5.88 491.55 5.56 C 491.70 5.23 492.02 4.58 492.18 4.26 Z" />
<path fill="#c8af6e" d=" M 493.48 4.39 C 495.02 4.80 496.56 5.21 498.04 5.83 C 498.50 6.97 498.96 8.11 499.42 9.26 C 498.54 9.30 496.76 9.38 495.87 9.42 C 495.87 7.86 494.32 6.94 492.94 6.83 C 493.05 6.36 493.28 5.41 493.39 4.93 L 493.48 4.39 Z" />
<path fill="#d7ba74" d=" M 28.99 5.79 C 30.15 5.13 31.34 4.49 32.53 3.87 C 33.72 7.16 30.20 8.62 27.55 8.83 L 27.41 6.99 C 27.80 6.69 28.59 6.09 28.99 5.79 Z" />
<path fill="#a77c2d" d=" M 7.62 5.80 C 9.36 6.88 11.18 7.82 13.02 8.74 C 13.17 8.33 13.49 7.50 13.64 7.08 C 15.10 8.10 15.41 10.13 16.46 11.51 L 16.68 11.93 C 15.41 11.44 14.13 10.97 12.85 10.52 C 11.17 13.20 9.85 16.11 9.20 19.23 C 8.79 16.99 9.09 14.71 9.88 12.58 C 10.46 11.65 11.06 10.72 11.67 9.80 C 10.24 9.00 8.81 8.21 7.38 7.42 C 7.44 7.02 7.56 6.21 7.62 5.80 Z" />
<path fill="#d9c07f" d=" M 39.57 5.38 C 40.90 5.52 42.23 5.69 43.56 5.90 C 43.96 6.10 44.77 6.49 45.17 6.68 C 44.64 7.17 43.60 8.16 43.08 8.66 C 42.59 8.46 41.61 8.07 41.12 7.87 C 40.73 7.25 39.95 6.01 39.57 5.38 Z" />
<path fill="#4f8c39" d=" M 53.30 5.82 C 53.51 6.20 53.93 6.97 54.14 7.35 C 52.26 8.45 51.12 10.30 50.08 12.14 C 43.81 19.79 32.17 18.03 24.33 13.96 C 30.49 14.15 36.49 17.91 42.68 15.61 C 47.77 14.40 50.10 9.41 53.30 5.82 Z" />
<path fill="#212123" d=" M 80.05 5.90 C 80.02 6.27 79.94 6.99 79.91 7.36 C 78.15 10.63 74.88 12.68 72.41 15.38 C 72.12 15.48 71.54 15.70 71.25 15.81 C 71.58 15.46 72.25 14.77 72.59 14.42 C 75.13 11.62 78.49 9.47 80.05 5.90 Z" />
<path fill="#d8b865" d=" M 482.15 6.15 C 484.09 5.89 486.05 5.61 488.03 5.85 C 486.76 8.64 483.52 9.03 480.91 9.76 C 481.29 8.55 481.71 7.35 482.15 6.15 Z" />
<path fill="#c8af6e" d=" M 493.19 13.26 C 490.84 11.26 489.60 8.31 491.55 5.56 C 491.89 5.88 492.59 6.51 492.94 6.83 C 493.31 7.48 494.05 8.77 494.41 9.42 C 494.33 10.80 493.92 12.08 493.19 13.26 Z" />
<path fill="#35b74b" d=" M 515.33 10.13 C 518.16 8.55 520.94 6.89 523.71 5.19 C 523.80 28.43 523.85 51.67 523.66 74.90 C 520.33 74.73 516.99 74.32 513.92 72.96 C 514.18 72.70 514.69 72.18 514.95 71.92 C 515.65 70.68 516.29 69.42 516.90 68.14 C 518.17 67.12 520.32 66.58 520.44 64.65 C 520.69 62.68 519.93 60.78 519.53 58.89 C 519.93 56.92 521.22 54.76 520.19 52.78 C 519.30 51.37 518.04 50.27 516.92 49.06 C 515.52 47.53 514.16 45.96 512.67 44.51 C 513.44 43.31 514.23 42.11 515.02 40.91 C 514.76 40.41 514.25 39.42 514.00 38.92 C 513.73 37.60 513.49 36.26 513.28 34.93 C 515.51 33.28 517.88 31.77 519.73 29.67 C 521.32 28.05 520.19 25.73 520.00 23.82 C 519.40 21.60 520.77 19.49 520.68 17.27 C 520.21 15.22 518.23 14.13 516.74 12.88 C 516.39 12.19 515.68 10.82 515.33 10.13 Z" />
<path fill="#d3bb69" d=" M 31.72 9.08 C 32.60 7.97 33.49 6.86 34.38 5.76 C 34.98 7.53 35.41 9.35 35.73 11.19 C 34.59 11.41 33.46 11.64 32.32 11.87 C 32.17 11.17 31.87 9.78 31.72 9.08 Z" />
<path fill="#cdbe77" d=" M 36.43 6.13 C 38.58 7.28 41.37 8.55 40.65 11.55 C 39.87 11.48 38.31 11.34 37.53 11.27 L 37.17 10.70 C 36.90 9.18 36.65 7.65 36.43 6.13 Z" />
<path fill="#c7a537" d=" M 45.17 6.68 L 45.71 6.94 C 46.58 8.81 44.41 9.68 43.08 8.66 C 43.60 8.16 44.64 7.17 45.17 6.68 Z" />
<path fill="#628b19" d=" M 45.71 6.94 C 46.58 7.82 47.42 8.73 48.23 9.66 C 46.30 9.85 44.36 10.01 42.42 10.16 C 42.16 12.28 39.29 15.44 38.11 12.17 C 38.85 12.15 40.35 12.11 41.09 12.09 C 41.12 10.68 41.13 9.28 41.12 7.87 C 41.61 8.07 42.59 8.46 43.08 8.66 C 44.41 9.68 46.58 8.81 45.71 6.94 Z" />
<path fill="#d7be72" d=" M 485.71 8.70 C 487.13 8.05 488.56 7.40 490.01 6.79 C 490.47 9.36 488.54 11.19 487.03 12.95 C 485.78 11.81 485.34 10.40 485.71 8.70 Z" />
<path fill="#836a00" d=" M 492.94 6.83 C 494.32 6.94 495.87 7.86 495.87 9.42 C 495.51 9.42 494.78 9.42 494.41 9.42 C 494.05 8.77 493.31 7.48 492.94 6.83 Z" />
<path fill="#638b1a" d=" M 25.98 9.07 C 27.90 9.08 29.81 9.08 31.72 9.08 C 31.87 9.78 32.17 11.17 32.32 11.87 C 33.46 11.64 34.59 11.41 35.73 11.19 C 34.98 12.10 34.24 13.02 33.53 13.96 C 31.97 13.12 30.95 11.73 30.26 10.11 C 28.83 10.05 27.39 9.99 25.95 9.94 L 25.98 9.07 Z" />
<path fill="#d8edd5" d=" M 47.55 18.56 C 50.99 15.97 52.76 11.96 54.82 8.31 C 55.96 9.28 57.10 10.24 58.23 11.22 C 58.49 11.45 58.99 11.93 59.24 12.16 C 59.14 12.41 58.93 12.89 58.82 13.13 C 57.43 15.11 55.65 16.83 54.58 19.02 C 53.90 21.65 55.57 23.92 56.87 26.02 C 59.86 24.94 61.38 22.21 62.72 19.54 C 62.93 19.31 63.36 18.85 63.58 18.62 C 61.61 20.80 62.94 23.70 65.06 25.21 C 62.87 28.71 60.49 32.23 57.09 34.68 C 53.62 32.60 49.80 31.31 45.84 30.54 C 43.02 32.40 40.46 34.61 38.61 37.46 C 34.61 39.45 32.29 34.95 29.21 33.35 C 28.74 33.44 27.80 33.62 27.33 33.71 C 24.90 34.24 23.08 35.96 21.08 37.29 C 19.06 38.30 17.56 36.52 16.13 35.41 C 19.33 34.32 22.37 32.80 25.15 30.87 C 26.09 30.02 26.89 28.96 27.31 27.76 C 27.81 26.16 28.16 24.53 28.52 22.90 C 35.07 23.74 42.41 23.16 47.55 18.56 Z" />
<path fill="#d8eed5" d=" M 468.63 12.00 C 469.31 10.40 470.47 9.58 472.09 9.55 C 474.04 12.95 475.66 16.71 478.88 19.16 C 484.11 23.63 491.35 24.06 497.90 23.49 C 498.32 25.59 498.79 27.72 499.89 29.60 L 500.11 29.97 C 502.99 33.22 507.13 34.83 511.22 35.92 C 509.32 37.22 507.36 38.45 505.35 39.58 C 505.03 39.24 504.40 38.58 504.08 38.25 C 504.31 36.64 502.39 35.61 501.71 34.28 C 499.94 34.25 498.14 33.99 496.41 34.40 C 493.62 35.73 491.69 40.04 488.10 38.14 C 486.25 35.47 483.85 33.30 481.30 31.30 C 477.23 31.47 473.30 32.67 469.88 34.89 C 467.11 32.30 464.73 29.34 462.76 26.11 C 462.50 25.74 462.00 24.99 461.75 24.61 L 461.60 24.38 C 462.66 23.61 463.76 22.86 464.85 22.12 C 465.75 24.06 467.91 26.95 470.27 25.36 C 473.42 22.02 471.38 17.40 468.76 14.48 C 468.69 13.65 468.64 12.83 468.63 12.00 Z" />
<path fill="#38b64a" d=" M 12.85 10.52 C 14.13 10.97 15.41 11.44 16.68 11.93 C 17.13 12.59 17.55 13.26 17.94 13.95 C 17.85 14.68 17.68 16.15 17.59 16.88 C 18.79 17.54 20.00 18.19 21.18 18.88 C 22.88 21.55 24.80 24.77 23.32 27.99 C 22.01 30.51 19.93 33.35 16.93 33.73 C 13.54 32.29 10.40 29.69 9.21 26.09 C 10.09 25.48 10.96 24.87 11.83 24.27 C 10.87 22.64 9.86 21.01 9.20 19.23 C 9.85 16.11 11.17 13.20 12.85 10.52 Z" />
<path fill="#ccbc8c" d=" M 450.90 10.85 C 452.56 11.75 454.04 12.92 455.44 14.19 C 459.12 14.25 461.40 17.07 463.35 19.84 C 463.57 19.54 464.03 18.96 464.25 18.67 C 464.40 19.53 464.70 21.26 464.85 22.12 C 463.76 22.86 462.66 23.61 461.60 24.38 L 461.58 24.39 C 461.62 24.44 461.71 24.55 461.75 24.61 C 462.00 24.99 462.50 25.74 462.76 26.11 L 461.73 26.03 C 460.13 26.60 458.60 27.35 456.95 27.75 C 454.02 27.07 451.23 25.78 448.63 24.29 C 447.87 22.70 447.96 20.83 448.22 19.13 C 449.26 16.86 452.22 16.85 454.25 15.92 C 452.97 14.35 451.36 12.91 450.90 10.85 Z" />
<path fill="#3bb64b" d=" M 508.36 12.94 C 510.15 12.28 511.96 11.63 513.73 10.89 C 514.93 13.78 516.15 16.66 517.47 19.50 C 516.39 21.52 515.19 23.48 514.02 25.45 C 514.95 25.54 516.82 25.73 517.76 25.82 C 516.43 30.09 512.40 32.31 508.99 34.74 C 507.10 33.11 505.23 31.46 503.44 29.74 C 502.96 27.81 502.09 25.88 502.45 23.86 C 503.98 20.72 506.98 18.76 509.73 16.78 C 509.27 15.50 508.81 14.22 508.36 12.94 Z" />
<path fill="#859e28" d=" M 513.73 10.89 C 514.13 10.70 514.93 10.32 515.33 10.13 C 515.68 10.82 516.39 12.19 516.74 12.88 C 517.33 15.03 517.77 17.26 517.47 19.50 C 516.15 16.66 514.93 13.78 513.73 10.89 Z" />
<path fill="#bd914b" d=" M 50.08 12.14 L 51.66 11.62 C 47.71 20.91 36.18 23.39 27.07 22.08 C 27.16 23.97 27.26 25.86 27.31 27.76 C 26.89 28.96 26.09 30.02 25.15 30.87 C 24.76 30.71 23.98 30.38 23.59 30.21 C 24.02 28.15 24.71 26.10 24.69 23.97 C 24.74 21.69 22.70 20.25 21.18 18.88 C 20.00 18.19 18.79 17.54 17.59 16.88 C 17.68 16.15 17.85 14.68 17.94 13.95 C 18.39 13.51 19.30 12.63 19.75 12.19 C 21.27 12.80 22.80 13.39 24.33 13.96 C 32.17 18.03 43.81 19.79 50.08 12.14 Z" />
<path fill="#bb9248" d=" M 475.14 11.48 C 477.67 14.32 480.77 16.87 484.67 17.38 C 492.36 19.44 499.54 15.17 506.72 13.14 C 507.52 14.14 508.33 15.14 509.14 16.14 C 506.64 18.27 503.47 20.00 502.12 23.14 C 501.03 25.70 502.45 28.30 503.50 30.60 L 503.59 31.74 C 502.41 31.18 501.25 30.59 500.11 29.97 L 499.89 29.60 C 499.67 27.15 499.41 24.70 498.87 22.30 C 494.67 22.52 490.36 22.98 486.25 21.79 C 481.73 20.57 478.10 17.29 475.28 13.68 C 475.24 13.13 475.17 12.03 475.14 11.48 Z" />
<path fill="#755809" d=" M 5.74 16.94 C 5.99 14.68 8.22 13.70 9.88 12.58 C 9.09 14.71 8.79 16.99 9.20 19.23 C 9.86 21.01 10.87 22.64 11.83 24.27 C 10.96 24.87 10.09 25.48 9.21 26.09 C 10.40 29.69 13.54 32.29 16.93 33.73 C 19.93 33.35 22.01 30.51 23.32 27.99 C 24.80 24.77 22.88 21.55 21.18 18.88 C 22.70 20.25 24.74 21.69 24.69 23.97 C 24.71 26.10 24.02 28.15 23.59 30.21 C 23.98 30.38 24.76 30.71 25.15 30.87 C 22.37 32.80 19.33 34.32 16.13 35.41 C 15.81 35.44 15.17 35.52 14.85 35.56 C 13.60 34.74 12.39 33.88 11.19 33.00 C 8.96 31.01 4.56 28.64 6.07 25.07 C 7.37 22.43 6.05 19.64 5.74 16.94 Z" />
<path fill="#6d5806" d=" M 516.74 12.88 C 518.23 14.13 520.21 15.22 520.68 17.27 C 520.77 19.49 519.40 21.60 520.00 23.82 C 520.19 25.73 521.32 28.05 519.73 29.67 C 517.88 31.77 515.51 33.28 513.28 34.93 C 513.49 36.26 513.73 37.60 514.00 38.92 C 513.63 38.29 512.90 37.01 512.54 36.38 C 512.10 36.21 511.66 36.06 511.22 35.92 C 507.13 34.83 502.99 33.22 500.11 29.97 C 501.25 30.59 502.41 31.18 503.59 31.74 L 503.50 30.60 L 503.44 29.74 C 505.23 31.46 507.10 33.11 508.99 34.74 C 512.40 32.31 516.43 30.09 517.76 25.82 C 516.82 25.73 514.95 25.54 514.02 25.45 C 515.19 23.48 516.39 21.52 517.47 19.50 C 517.77 17.26 517.33 15.03 516.74 12.88 Z" />
<path fill="#fb161f" d=" M 54.58 19.02 C 55.65 16.83 57.43 15.11 58.82 13.13 C 60.13 15.26 61.52 17.35 62.72 19.54 C 61.38 22.21 59.86 24.94 56.87 26.02 C 55.57 23.92 53.90 21.65 54.58 19.02 Z" />
<path fill="#d2c287" d=" M 67.42 14.40 C 69.12 14.01 70.87 14.38 72.59 14.42 C 72.25 14.77 71.58 15.46 71.25 15.81 C 71.54 15.70 72.12 15.48 72.41 15.38 C 74.37 16.19 77.67 16.28 78.04 18.96 C 78.09 20.61 79.25 23.23 77.18 24.08 C 73.69 25.77 69.22 28.94 65.74 25.42 L 65.82 24.52 C 65.63 24.70 65.25 25.04 65.06 25.21 C 62.94 23.70 61.61 20.80 63.58 18.62 C 64.91 17.26 66.08 15.75 67.42 14.40 Z" />
<path fill="#ef1721" d=" M 464.25 18.67 C 465.67 17.20 466.29 14.37 468.76 14.48 C 471.38 17.40 473.42 22.02 470.27 25.36 C 467.91 26.95 465.75 24.06 464.85 22.12 C 464.70 21.26 464.40 19.53 464.25 18.67 Z" />
<path fill="#9a8b52" d=" M 456.36 18.04 C 455.65 15.59 459.50 17.76 457.05 18.50 L 456.36 18.04 Z" />
<path fill="#fcfff2" d=" M 69.38 18.02 C 70.36 18.20 71.33 18.41 72.30 18.65 C 72.92 18.99 74.17 19.69 74.79 20.03 L 74.29 20.03 C 72.68 20.13 71.14 19.88 69.67 19.28 C 68.12 20.75 69.66 22.00 70.61 23.24 C 69.93 22.98 68.57 22.47 67.89 22.21 C 67.86 22.19 67.79 22.15 67.75 22.13 C 66.12 20.52 68.59 19.24 69.38 18.02 Z" />
<path fill="#8d702a" d=" M 71.63 18.26 C 72.72 18.68 74.80 18.01 75.28 19.44 C 75.44 20.60 75.55 21.76 75.60 22.93 C 75.22 22.59 74.47 21.91 74.09 21.57 L 74.13 21.13 C 74.17 20.86 74.25 20.31 74.29 20.03 L 74.79 20.03 C 74.17 19.69 72.92 18.99 72.30 18.65 L 71.63 18.26 Z" />
<path fill="#eae9d7" d=" M 456.36 18.04 L 457.05 18.50 C 457.99 19.20 458.85 20.04 459.52 21.02 L 459.95 21.72 C 459.14 22.41 458.32 23.09 457.50 23.76 C 457.15 23.83 456.44 23.97 456.08 24.04 C 454.73 23.29 452.78 22.79 452.56 20.99 C 453.36 19.54 455.08 18.99 456.36 18.04 Z" />
<path fill="#a69152" d=" M 451.41 19.38 C 452.86 19.29 452.60 21.86 451.80 22.57 C 450.37 22.61 450.61 20.09 451.41 19.38 Z" />
<path fill="#bebebc" d=" M 455.23 20.28 C 456.88 19.75 457.47 20.28 457.01 21.88 C 455.35 22.41 454.75 21.88 455.23 20.28 Z" />
<path fill="#b49a5d" d=" M 459.52 21.02 C 459.72 18.92 463.30 20.19 461.66 21.82 C 461.23 21.79 460.38 21.74 459.95 21.72 L 459.52 21.02 Z" />
<path fill="#fcfff2" d=" M 70.77 22.44 C 70.33 20.74 73.10 20.89 74.13 21.13 L 74.09 21.57 C 73.10 22.50 71.99 22.79 70.77 22.44 Z" />
<path fill="#d8edd5" d=" M 67.75 22.13 C 67.79 22.15 67.86 22.19 67.89 22.21 C 67.86 22.19 67.79 22.15 67.75 22.13 Z" />
<path fill="#9e8d54" d=" M 456.08 24.04 C 456.44 23.97 457.15 23.83 457.50 23.76 L 457.69 24.63 L 457.00 25.26 L 456.16 24.89 L 456.08 24.04 Z" />
<path fill="#867450" d=" M 461.58 24.39 L 461.60 24.38 L 461.75 24.61 C 461.71 24.55 461.62 24.44 461.58 24.39 Z" />
<path fill="#746200" d=" M 65.06 25.21 C 65.25 25.04 65.63 24.70 65.82 24.52 L 65.74 25.42 C 63.72 29.24 60.80 32.46 57.63 35.36 C 58.66 36.58 59.70 37.79 60.73 39.01 C 59.51 40.40 58.28 41.78 57.06 43.17 C 60.44 46.13 63.06 49.78 65.83 53.28 C 65.63 53.54 65.23 54.05 65.03 54.31 C 63.10 50.51 60.46 46.96 57.08 44.33 C 53.28 44.85 49.71 47.26 45.70 47.57 C 42.93 45.65 40.37 43.46 38.59 40.56 C 34.99 38.71 32.79 42.42 30.29 44.23 C 27.01 45.75 23.68 43.79 21.39 41.50 L 20.95 40.89 C 22.86 41.97 24.54 44.26 26.94 43.96 C 27.17 43.50 27.65 42.59 27.89 42.14 C 28.41 41.14 29.07 40.21 29.71 39.29 C 29.02 37.80 28.37 36.30 27.75 34.79 L 27.33 33.71 C 27.80 33.62 28.74 33.44 29.21 33.35 C 32.29 34.95 34.61 39.45 38.61 37.46 C 40.46 34.61 43.02 32.40 45.84 30.54 C 49.80 31.31 53.62 32.60 57.09 34.68 C 60.49 32.23 62.87 28.71 65.06 25.21 Z" />
<path fill="#756200" d=" M 461.73 26.03 L 462.76 26.11 C 464.73 29.34 467.11 32.30 469.88 34.89 C 473.30 32.67 477.23 31.47 481.30 31.30 C 483.85 33.30 486.25 35.47 488.10 38.14 C 491.69 40.04 493.62 35.73 496.41 34.40 C 498.14 33.99 499.94 34.25 501.71 34.28 C 502.39 35.61 504.31 36.64 504.08 38.25 C 502.54 37.61 501.79 35.79 500.25 35.29 C 498.25 35.75 497.81 38.39 496.60 39.82 C 497.56 41.19 498.43 42.62 499.09 44.16 C 498.81 44.54 498.24 45.30 497.95 45.68 C 495.59 44.24 493.40 42.53 491.48 40.53 C 490.28 40.61 489.09 40.69 487.90 40.78 C 486.45 43.83 483.79 45.90 481.10 47.79 C 477.10 47.42 473.18 46.41 469.81 44.16 C 466.60 47.57 463.21 51.14 461.79 55.71 L 463.42 55.26 C 463.80 56.34 464.18 57.43 464.57 58.52 C 465.70 57.39 466.51 55.68 468.15 55.18 C 471.16 55.02 471.83 58.73 471.72 61.04 C 471.71 63.36 469.49 64.56 467.98 65.90 C 467.81 66.04 467.48 66.31 467.31 66.44 C 464.94 64.85 464.24 62.17 463.74 59.54 C 463.42 58.85 463.09 58.16 462.75 57.49 C 461.84 57.61 460.82 58.63 459.97 57.89 L 460.11 57.34 C 460.42 56.33 460.74 55.32 461.09 54.32 C 461.17 54.14 461.35 53.77 461.43 53.59 C 463.79 49.94 466.46 46.48 469.60 43.47 C 468.49 42.52 467.40 41.57 466.31 40.61 C 466.33 40.08 466.37 39.04 466.38 38.51 C 467.44 37.46 468.51 36.42 469.58 35.37 C 466.36 32.80 463.99 29.43 461.73 26.03 Z" />
<path fill="#aeb977" d=" M 11.19 33.00 C 12.39 33.88 13.60 34.74 14.85 35.56 C 15.17 35.52 15.81 35.44 16.13 35.41 C 17.56 36.52 19.06 38.30 21.08 37.29 C 23.08 35.96 24.90 34.24 27.33 33.71 L 27.75 34.79 L 27.11 34.81 C 26.63 34.86 25.67 34.97 25.19 35.03 C 24.87 35.49 24.23 36.41 23.90 36.87 C 22.43 37.74 19.02 38.68 20.95 40.89 L 21.39 41.50 C 19.78 42.50 18.18 43.50 16.58 44.50 C 16.94 44.85 17.66 45.54 18.01 45.88 C 16.73 45.53 15.43 45.20 14.14 44.87 C 14.22 45.32 14.39 46.21 14.47 46.65 C 13.90 46.68 12.76 46.74 12.19 46.77 C 12.68 45.56 13.10 44.32 13.53 43.09 C 13.74 43.30 14.15 43.73 14.36 43.95 C 16.29 42.83 18.07 41.49 19.83 40.12 C 18.09 39.02 16.35 37.93 14.62 36.82 C 14.27 37.10 13.56 37.68 13.21 37.97 C 13.34 37.42 13.59 36.31 13.72 35.76 C 12.92 34.81 12.08 33.87 11.19 33.00 Z" />
<path fill="#d9f5d7" d=" M 45.33 35.43 C 48.39 33.56 52.49 33.81 55.35 35.95 C 52.40 37.99 48.85 38.70 45.46 39.65 C 45.40 38.24 45.36 36.83 45.33 35.43 Z" />
<path fill="#dff0d6" d=" M 472.81 35.04 C 475.31 34.78 478.24 33.88 480.44 35.57 C 481.31 36.61 482.21 38.68 480.45 39.36 C 477.88 38.20 473.34 38.49 472.81 35.04 Z" />
<path fill="#f9f6e7" d=" M 25.19 35.03 C 25.67 34.97 26.63 34.86 27.11 34.81 C 27.18 35.61 27.30 37.20 27.37 38.00 C 25.75 38.40 24.14 38.81 22.54 39.27 C 24.18 40.47 26.09 41.20 27.89 42.14 C 27.65 42.59 27.17 43.50 26.94 43.96 C 24.54 44.26 22.86 41.97 20.95 40.89 C 19.02 38.68 22.43 37.74 23.90 36.87 C 24.23 36.41 24.87 35.49 25.19 35.03 Z" />
<path fill="#cdc075" d=" M 27.11 34.81 L 27.75 34.79 C 28.37 36.30 29.02 37.80 29.71 39.29 C 29.07 40.21 28.41 41.14 27.89 42.14 C 26.09 41.20 24.18 40.47 22.54 39.27 C 24.14 38.81 25.75 38.40 27.37 38.00 C 27.30 37.20 27.18 35.61 27.11 34.81 Z" />
<path fill="#d5c48a" d=" M 500.25 35.29 C 501.79 35.79 502.54 37.61 504.08 38.25 C 504.40 38.58 505.03 39.24 505.35 39.58 C 505.44 39.91 505.63 40.59 505.72 40.92 C 503.33 41.60 501.13 42.78 499.09 44.16 C 498.43 42.62 497.56 41.19 496.60 39.82 C 497.81 38.39 498.25 35.75 500.25 35.29 Z" />
<path fill="#948017" d=" M 511.22 35.92 C 511.66 36.06 512.10 36.21 512.54 36.38 C 510.63 37.81 507.22 38.27 506.85 40.98 C 507.77 43.25 510.82 43.23 512.67 44.51 C 514.16 45.96 515.52 47.53 516.92 49.06 C 519.22 55.17 519.19 62.03 516.90 68.14 C 516.29 69.42 515.65 70.68 514.95 71.92 C 514.69 72.18 514.18 72.70 513.92 72.96 C 513.70 73.17 513.26 73.57 513.04 73.77 C 509.21 77.38 504.37 81.47 498.69 79.66 C 499.51 79.00 500.32 78.32 501.12 77.62 C 502.96 77.50 505.08 78.01 506.68 76.81 C 509.20 75.02 511.01 72.44 513.12 70.21 C 515.18 68.00 517.25 65.25 516.68 62.03 C 516.02 58.45 517.55 54.40 515.44 51.18 C 514.32 48.98 512.92 46.93 511.08 45.27 C 509.47 43.60 506.17 43.46 505.72 40.92 C 505.63 40.59 505.44 39.91 505.35 39.58 C 507.36 38.45 509.32 37.22 511.22 35.92 Z" />
<path fill="#d4eed8" d=" M 13.21 37.97 C 13.56 37.68 14.27 37.10 14.62 36.82 C 16.35 37.93 18.09 39.02 19.83 40.12 C 18.07 41.49 16.29 42.83 14.36 43.95 C 14.15 43.73 13.74 43.30 13.53 43.09 C 12.62 42.09 11.73 41.09 10.84 40.09 C 11.63 39.38 12.42 38.67 13.21 37.97 Z" />
<path fill="#fcfff2" d=" M 49.16 39.26 C 51.54 38.74 53.70 37.63 55.87 36.58 C 57.76 35.99 58.75 38.26 60.16 39.05 C 58.57 40.36 56.91 41.58 55.06 42.51 C 53.21 41.23 51.20 40.21 49.16 39.26 Z" />
<path fill="#f8f8eb" d=" M 466.67 39.20 C 467.77 38.27 468.86 37.32 469.93 36.34 C 472.71 37.00 475.57 38.33 477.80 40.02 C 475.95 40.45 474.14 40.97 472.42 41.78 C 471.76 41.98 470.43 42.37 469.77 42.57 C 468.56 41.62 467.42 40.57 466.67 39.20 Z" />
<path fill="#daf2d6" d=" M 506.85 40.98 C 507.22 38.27 510.63 37.81 512.54 36.38 C 512.90 37.01 513.63 38.29 514.00 38.92 C 514.25 39.42 514.76 40.41 515.02 40.91 C 514.23 42.11 513.44 43.31 512.67 44.51 C 510.82 43.23 507.77 43.25 506.85 40.98 Z" />
<path fill="#d9edd5" d=" M 30.29 44.23 C 32.79 42.42 34.99 38.71 38.59 40.56 C 40.37 43.46 42.93 45.65 45.70 47.57 C 49.71 47.26 53.28 44.85 57.08 44.33 C 60.46 46.96 63.10 50.51 65.03 54.31 C 63.95 55.23 62.82 56.08 61.79 57.04 C 61.72 60.26 65.10 61.97 67.18 63.90 C 68.51 65.20 70.36 64.27 71.86 63.92 C 74.11 66.52 76.69 68.79 79.24 71.09 C 79.39 71.65 79.69 72.77 79.84 73.33 C 80.08 73.54 80.56 73.97 80.80 74.18 C 81.11 74.46 81.73 75.02 82.05 75.30 C 81.12 76.81 80.11 78.27 79.09 79.72 C 78.71 79.70 77.96 79.66 77.58 79.63 C 77.49 78.88 77.32 77.37 77.23 76.62 C 75.72 76.35 73.74 74.74 72.73 76.67 C 72.41 77.38 71.78 78.79 71.46 79.49 C 68.12 75.19 62.90 73.20 57.78 71.93 C 58.54 69.80 59.37 67.69 60.15 65.56 C 60.81 63.03 61.75 59.67 59.31 57.75 C 57.96 56.17 54.28 53.99 53.50 57.09 C 52.06 60.99 54.54 64.59 58.15 65.97 C 57.34 67.80 56.64 69.66 55.86 71.50 C 55.44 71.41 54.60 71.24 54.18 71.15 C 52.88 68.81 51.70 66.39 50.06 64.26 C 49.33 63.18 48.35 62.28 47.24 61.61 C 41.83 57.81 34.98 56.57 28.52 57.85 C 28.15 56.14 27.81 54.42 27.33 52.74 C 26.99 51.57 26.19 50.56 25.22 49.84 C 23.01 48.19 20.53 46.97 18.01 45.88 C 17.66 45.54 16.94 44.85 16.58 44.50 C 18.18 43.50 19.78 42.50 21.39 41.50 C 23.68 43.79 27.01 45.75 30.29 44.23 Z" />
<path fill="#dff0d6" d=" M 45.05 40.02 C 48.28 40.21 52.04 40.41 54.21 43.16 C 50.99 44.48 44.94 44.97 45.05 40.02 Z" />
<path fill="#e5f0d3" d=" M 472.42 41.78 C 475.59 41.56 478.52 39.96 481.74 40.21 C 481.34 41.81 480.45 43.18 479.46 44.47 C 476.81 44.56 473.92 44.81 471.82 42.86 C 471.31 42.79 470.28 42.64 469.77 42.57 C 470.43 42.37 471.76 41.98 472.42 41.78 Z" />
<path fill="#d9edd3" d=" M 487.90 40.78 C 489.09 40.69 490.28 40.61 491.48 40.53 C 493.40 42.53 495.59 44.24 497.95 45.68 C 498.24 45.30 498.81 44.54 499.09 44.16 C 501.13 42.78 503.33 41.60 505.72 40.92 C 506.17 43.46 509.47 43.60 511.08 45.27 C 508.70 46.16 506.31 46.99 503.98 48.00 C 500.17 49.91 498.41 53.89 497.68 57.88 C 491.72 57.39 485.25 57.67 480.16 61.15 C 476.38 63.88 473.11 67.81 472.45 72.55 C 468.91 72.46 468.85 68.44 467.98 65.90 C 469.49 64.56 471.71 63.36 471.72 61.04 C 471.83 58.73 471.16 55.02 468.15 55.18 C 466.51 55.68 465.70 57.39 464.57 58.52 C 464.18 57.43 463.80 56.34 463.42 55.26 L 461.79 55.71 C 463.21 51.14 466.60 47.57 469.81 44.16 C 473.18 46.41 477.10 47.42 481.10 47.79 C 483.79 45.90 486.45 43.83 487.90 40.78 Z" />
<path fill="#755303" d=" M 14.14 44.87 C 15.43 45.20 16.73 45.53 18.01 45.88 C 20.53 46.97 23.01 48.19 25.22 49.84 C 24.65 49.75 23.51 49.58 22.94 49.49 L 23.45 50.91 C 21.31 49.33 19.14 47.80 17.01 46.21 C 14.19 48.70 9.70 50.36 9.37 54.63 C 10.20 55.12 12.93 54.09 12.40 55.85 C 11.37 57.58 9.90 59.08 9.37 61.08 C 8.03 63.40 8.72 66.29 11.27 67.40 C 11.37 67.54 11.58 67.81 11.68 67.95 L 11.84 68.55 C 11.51 68.52 10.85 68.48 10.51 68.46 C 8.89 67.49 7.01 66.54 6.22 64.70 C 4.93 62.35 7.12 59.88 6.57 57.44 C 6.35 55.94 5.71 54.48 5.85 52.95 C 7.09 50.15 10.06 48.79 12.19 46.77 C 12.76 46.74 13.90 46.68 14.47 46.65 C 14.39 46.21 14.22 45.32 14.14 44.87 Z" />
<path fill="#5c7531" d=" M 503.98 48.00 C 506.31 46.99 508.70 46.16 511.08 45.27 C 512.92 46.93 514.32 48.98 515.44 51.18 C 513.33 50.00 511.43 48.35 509.16 47.50 C 507.10 48.35 505.34 49.76 503.56 51.06 C 503.66 50.29 503.87 48.76 503.98 48.00 Z" />
<path fill="#38b74a" d=" M 9.37 54.63 C 9.70 50.36 14.19 48.70 17.01 46.21 C 19.14 47.80 21.31 49.33 23.45 50.91 C 23.51 53.88 24.77 57.82 21.97 59.95 C 20.29 61.44 18.38 62.63 16.53 63.88 C 16.99 65.14 17.45 66.40 17.91 67.66 C 16.58 68.50 15.24 69.34 13.92 70.19 C 13.51 69.77 12.71 68.92 12.31 68.49 C 12.15 68.36 11.84 68.08 11.68 67.95 C 11.58 67.81 11.37 67.54 11.27 67.40 C 10.70 65.27 10.11 63.15 9.37 61.08 C 9.90 59.08 11.37 57.58 12.40 55.85 C 12.93 54.09 10.20 55.12 9.37 54.63 Z" />
<path fill="#3bb44a" d=" M 509.16 47.50 C 511.43 48.35 513.33 50.00 515.44 51.18 C 517.55 54.40 516.02 58.45 516.68 62.03 C 517.25 65.25 515.18 68.00 513.12 70.21 C 511.51 69.56 509.90 68.91 508.30 68.26 C 508.35 66.86 508.41 65.46 508.47 64.06 C 507.65 63.56 506.84 63.03 506.05 62.50 C 503.78 59.64 502.51 56.18 502.63 52.51 C 502.86 52.15 503.32 51.42 503.56 51.06 C 505.34 49.76 507.10 48.35 509.16 47.50 Z" />
<path fill="#bc924a" d=" M 497.68 57.88 C 498.41 53.89 500.17 49.91 503.98 48.00 C 503.87 48.76 503.66 50.29 503.56 51.06 C 503.32 51.42 502.86 52.15 502.63 52.51 C 500.64 56.18 502.18 60.87 506.05 62.50 C 506.84 63.03 507.65 63.56 508.47 64.06 C 508.41 65.46 508.35 66.86 508.30 68.26 L 508.26 69.26 C 507.71 69.22 506.60 69.15 506.05 69.12 C 505.34 67.58 503.74 66.96 502.14 67.01 L 501.52 66.92 C 495.59 63.41 487.84 62.24 481.43 65.07 C 477.48 66.77 475.35 70.67 472.63 73.75 L 472.45 72.55 C 473.11 67.81 476.38 63.88 480.16 61.15 C 485.25 57.67 491.72 57.39 497.68 57.88 Z" />
<path fill="#7a460d" d=" M 516.92 49.06 C 518.04 50.27 519.30 51.37 520.19 52.78 C 521.22 54.76 519.93 56.92 519.53 58.89 C 519.93 60.78 520.69 62.68 520.44 64.65 C 520.32 66.58 518.17 67.12 516.90 68.14 C 519.19 62.03 519.22 55.17 516.92 49.06 Z" />
<path fill="#bb934c" d=" M 22.94 49.49 C 23.51 49.58 24.65 49.75 25.22 49.84 C 26.19 50.56 26.99 51.57 27.33 52.74 C 27.55 54.62 27.71 56.50 27.87 58.38 C 34.54 56.65 41.33 58.38 47.24 61.61 C 48.35 62.28 49.33 63.18 50.06 64.26 C 50.54 65.83 51.08 67.39 51.55 68.97 C 51.52 69.36 51.46 70.13 51.43 70.52 C 50.19 68.93 48.89 67.37 47.47 65.94 C 44.45 62.96 39.97 62.74 35.98 62.95 C 31.62 63.29 27.17 64.39 23.57 66.97 L 23.11 67.13 C 22.30 67.30 20.67 67.63 19.86 67.79 C 18.97 66.82 18.08 65.84 17.18 64.87 C 19.39 62.82 22.03 61.20 23.87 58.80 C 25.21 56.31 24.42 53.37 23.45 50.91 L 22.94 49.49 Z" />
<path fill="#7a460d" d=" M 23.45 50.91 C 24.42 53.37 25.21 56.31 23.87 58.80 C 22.03 61.20 19.39 62.82 17.18 64.87 C 18.08 65.84 18.97 66.82 19.86 67.79 C 20.67 67.63 22.30 67.30 23.11 67.13 C 20.49 68.20 17.89 69.30 15.28 70.36 C 15.34 70.67 15.47 71.27 15.53 71.57 L 15.23 73.00 C 14.84 73.34 14.06 74.01 13.67 74.35 C 13.56 73.64 13.35 72.22 13.24 71.51 C 9.18 73.47 5.25 75.69 1.42 78.07 C 1.58 77.51 1.90 76.37 2.06 75.80 C 5.20 74.24 8.26 72.52 11.38 70.92 L 12.00 70.63 C 12.48 70.52 13.44 70.30 13.92 70.19 C 15.24 69.34 16.58 68.50 17.91 67.66 C 17.45 66.40 16.99 65.14 16.53 63.88 C 18.38 62.63 20.29 61.44 21.97 59.95 C 24.77 57.82 23.51 53.88 23.45 50.91 Z" />
<path fill="#c4b585" d=" M 65.83 53.28 C 68.07 49.25 72.34 52.72 75.28 53.83 C 78.46 54.46 77.91 58.25 77.53 60.66 C 75.89 61.85 74.07 62.76 72.33 63.78 L 71.86 63.92 C 70.36 64.27 68.51 65.20 67.18 63.90 C 65.10 61.97 61.72 60.26 61.79 57.04 C 62.82 56.08 63.95 55.23 65.03 54.31 C 65.23 54.05 65.63 53.54 65.83 53.28 Z" />
<path fill="#bfb48e" d=" M 448.65 54.68 C 451.20 53.04 454.06 51.89 456.95 50.99 C 458.88 50.69 460.03 52.65 461.43 53.59 C 461.35 53.77 461.17 54.14 461.09 54.32 C 460.74 55.32 460.42 56.33 460.11 57.34 C 459.81 56.99 459.22 56.30 458.93 55.96 C 458.77 54.78 458.64 52.85 457.02 52.91 C 456.08 53.25 455.94 53.88 456.59 54.81 C 454.58 55.88 457.26 56.81 457.91 57.75 C 457.19 58.11 456.47 58.48 455.76 58.85 C 455.60 58.19 455.27 56.85 455.11 56.19 C 454.62 56.00 453.63 55.62 453.14 55.43 C 452.58 55.22 451.44 54.81 450.87 54.61 C 450.85 56.39 450.84 58.17 450.84 59.94 C 451.91 59.81 453.00 59.69 454.09 59.59 C 455.03 59.79 455.98 60.00 456.93 60.21 C 457.94 59.45 458.97 58.69 459.97 57.89 C 460.82 58.63 461.84 57.61 462.75 57.49 C 463.09 58.16 463.42 58.85 463.74 59.54 C 461.37 61.43 459.15 63.60 456.20 64.55 C 453.71 65.55 452.67 69.18 449.61 68.75 C 450.98 66.93 453.34 65.47 453.83 63.20 C 452.35 61.82 450.04 61.80 448.49 60.50 C 448.19 58.57 448.20 56.58 448.65 54.68 Z" />
<path fill="#212123" d=" M 27.33 52.74 C 27.81 54.42 28.15 56.14 28.52 57.85 C 34.98 56.57 41.83 57.81 47.24 61.61 C 41.33 58.38 34.54 56.65 27.87 58.38 C 27.71 56.50 27.55 54.62 27.33 52.74 Z" />
<path fill="#ae9965" d=" M 456.59 54.81 C 455.94 53.88 456.08 53.25 457.02 52.91 C 458.64 52.85 458.77 54.78 458.93 55.96 C 458.34 55.67 457.17 55.10 456.59 54.81 Z" />
<path fill="#598334" d=" M 506.05 62.50 C 502.18 60.87 500.64 56.18 502.63 52.51 C 502.51 56.18 503.78 59.64 506.05 62.50 Z" />
<path fill="#9e905a" d=" M 69.05 55.26 C 66.59 54.14 70.81 52.80 69.80 55.17 L 69.05 55.26 Z" />
<path fill="#fdf7e7" d=" M 69.05 55.26 L 69.80 55.17 C 71.45 58.02 66.00 57.12 69.05 55.26 Z" />
<path fill="#b19d6b" d=" M 450.87 54.61 C 451.44 54.81 452.58 55.22 453.14 55.43 C 452.43 57.12 452.74 58.51 454.09 59.59 C 453.00 59.69 451.91 59.81 450.84 59.94 C 450.84 58.17 450.85 56.39 450.87 54.61 Z" />
<path fill="#f1f0e2" d=" M 457.91 57.75 C 457.26 56.81 454.58 55.88 456.59 54.81 C 457.17 55.10 458.34 55.67 458.93 55.96 C 459.22 56.30 459.81 56.99 460.11 57.34 L 459.97 57.89 C 458.97 58.69 457.94 59.45 456.93 60.21 C 455.98 60.00 455.03 59.79 454.09 59.59 C 452.74 58.51 452.43 57.12 453.14 55.43 C 453.63 55.62 454.62 56.00 455.11 56.19 C 455.27 56.85 455.60 58.19 455.76 58.85 C 456.47 58.48 457.19 58.11 457.91 57.75 Z" />
<path fill="#f51a24" d=" M 53.50 57.09 C 54.28 53.99 57.96 56.17 59.31 57.75 C 61.75 59.67 60.81 63.03 60.15 65.56 C 59.65 65.66 58.65 65.87 58.15 65.97 C 54.54 64.59 52.06 60.99 53.50 57.09 Z" />
<path fill="#fcfff2" d=" M 70.71 58.74 C 70.35 56.79 71.19 55.81 73.24 56.03 C 73.22 56.78 73.17 58.28 73.15 59.03 C 72.07 59.55 71.03 60.20 69.87 60.52 L 69.00 60.71 C 68.62 60.15 67.85 59.04 67.46 58.48 C 68.28 58.55 69.90 58.68 70.71 58.74 Z" />
<path fill="#ada067" d=" M 73.24 56.03 C 76.18 54.29 76.09 61.25 73.12 60.38 L 73.15 59.03 C 73.17 58.28 73.22 56.78 73.24 56.03 Z" />
<path fill="#ec1e21" d=" M 464.50 59.06 C 466.26 58.06 467.69 54.43 470.07 56.02 C 470.92 57.91 471.14 59.99 471.38 62.03 C 470.17 63.23 469.00 64.46 467.87 65.73 C 465.00 64.76 464.33 61.76 464.50 59.06 Z" />
<path fill="#969037" d=" M 64.96 57.32 C 68.24 57.38 63.50 60.40 64.96 57.32 Z" />
<path fill="#d8edd5" d=" M 456.20 64.55 C 459.15 63.60 461.37 61.43 463.74 59.54 C 464.24 62.17 464.94 64.85 467.31 66.44 C 467.68 68.25 468.24 70.00 468.79 71.76 C 467.72 72.04 466.66 72.35 465.62 72.69 C 461.68 74.49 457.87 76.59 454.60 79.46 C 454.24 78.76 453.53 77.34 453.17 76.63 C 452.04 76.62 450.92 76.62 449.80 76.61 C 449.54 77.74 449.29 78.86 449.05 79.98 C 448.59 79.91 447.68 79.77 447.22 79.70 C 446.28 78.47 445.41 77.18 444.55 75.91 C 447.13 74.26 448.64 71.58 449.61 68.75 C 452.67 69.18 453.71 65.55 456.20 64.55 Z" />
<path fill="#78a32f" d=" M 11.27 67.40 C 8.72 66.29 8.03 63.40 9.37 61.08 C 10.11 63.15 10.70 65.27 11.27 67.40 Z" />
<path fill="#ad8e58" d=" M 69.87 60.52 C 72.81 62.39 66.42 62.83 69.00 60.71 L 69.87 60.52 Z" />
<path fill="#a59853" d=" M 456.23 61.06 C 459.27 59.60 456.31 64.35 456.23 61.06 Z" />
<path fill="#6e8437" d=" M 23.57 66.97 C 27.17 64.39 31.62 63.29 35.98 62.95 C 39.97 62.74 44.45 62.96 47.47 65.94 C 44.03 65.14 40.62 63.96 37.04 64.05 C 32.38 64.04 28.08 66.09 23.57 66.97 Z" />
<path fill="#37b74c" d=" M 23.57 66.97 C 28.08 66.09 32.38 64.04 37.04 64.05 C 40.62 63.96 44.03 65.14 47.47 65.94 C 48.89 67.37 50.19 68.93 51.43 70.52 C 51.88 71.31 52.33 72.10 52.80 72.89 C 53.09 73.38 53.68 74.37 53.98 74.87 C 52.74 75.60 51.51 76.35 50.25 77.02 C 49.23 76.54 48.21 76.07 47.20 75.59 C 47.37 74.09 47.54 72.59 47.70 71.09 C 45.86 71.13 44.02 71.25 42.20 71.46 C 41.95 70.30 41.71 69.13 41.48 67.96 C 39.65 67.80 38.06 68.58 36.60 69.58 C 34.87 68.89 33.09 67.07 31.15 68.11 C 30.93 69.35 30.80 70.61 30.74 71.88 C 29.18 71.56 27.60 71.33 26.02 71.09 C 26.28 72.49 26.54 73.89 26.80 75.29 C 25.19 76.10 23.59 76.90 21.98 77.70 C 20.25 76.63 18.53 75.56 16.79 74.50 C 16.36 73.53 15.91 72.57 15.53 71.57 C 15.47 71.27 15.34 70.67 15.28 70.36 C 17.89 69.30 20.49 68.20 23.11 67.13 L 23.57 66.97 Z" />
<path fill="#212123" d=" M 71.86 63.92 L 72.33 63.78 C 75.17 67.23 80.13 69.33 80.80 74.18 C 80.56 73.97 80.08 73.54 79.84 73.33 C 79.69 72.77 79.39 71.65 79.24 71.09 C 76.69 68.79 74.11 66.52 71.86 63.92 Z" />
<path fill="#5a8739" d=" M 481.43 65.07 C 487.84 62.24 495.59 63.41 501.52 66.92 C 494.89 65.64 488.25 63.92 481.43 65.07 Z" />
<path fill="#a77c2d" d=" M 50.06 64.26 C 51.70 66.39 52.88 68.81 54.18 71.15 C 54.60 71.24 55.44 71.41 55.86 71.50 C 56.34 71.61 57.30 71.83 57.78 71.93 C 62.90 73.20 68.12 75.19 71.46 79.49 C 71.78 78.79 72.41 77.38 72.73 76.67 C 73.74 74.74 75.72 76.35 77.23 76.62 C 77.32 77.37 77.49 78.88 77.58 79.63 C 77.96 79.66 78.71 79.70 79.09 79.72 L 80.13 79.80 C 76.37 79.71 72.62 79.68 68.87 79.79 L 68.33 79.28 C 65.47 75.81 60.82 75.30 56.92 73.63 C 55.56 73.30 54.18 73.10 52.80 72.89 C 52.33 72.10 51.88 71.31 51.43 70.52 C 51.46 70.13 51.52 69.36 51.55 68.97 C 51.08 67.39 50.54 65.83 50.06 64.26 Z" />
<path fill="#36b74c" d=" M 472.63 73.75 C 475.35 70.67 477.48 66.77 481.43 65.07 C 488.25 63.92 494.89 65.64 501.52 66.92 L 502.14 67.01 C 502.30 68.98 504.42 69.43 506.05 69.12 C 506.60 69.15 507.71 69.22 508.26 69.26 L 508.30 68.26 C 509.90 68.91 511.51 69.56 513.12 70.21 C 511.01 72.44 509.20 75.02 506.68 76.81 C 505.08 78.01 502.96 77.50 501.12 77.62 C 500.16 75.85 500.41 73.84 500.62 71.93 C 499.10 71.80 497.57 71.69 496.06 71.60 C 495.41 70.43 494.77 69.27 494.14 68.11 C 492.77 68.93 491.41 69.74 490.05 70.56 C 488.71 69.80 487.38 69.05 486.06 68.29 C 485.35 69.45 484.66 70.61 483.97 71.78 C 482.46 71.68 480.96 71.59 479.45 71.50 C 479.60 73.05 479.76 74.60 479.92 76.15 C 478.22 76.74 476.52 77.33 474.83 77.92 C 474.13 76.87 473.46 75.81 472.80 74.74 C 472.76 74.50 472.67 74.00 472.63 73.75 Z" />
<path fill="#c5ba6a" d=" M 58.15 65.97 C 58.65 65.87 59.65 65.66 60.15 65.56 C 59.37 67.69 58.54 69.80 57.78 71.93 C 57.30 71.83 56.34 71.61 55.86 71.50 C 56.64 69.66 57.34 67.80 58.15 65.97 Z" />
<path fill="#836a00" d=" M 467.31 66.44 C 467.48 66.31 467.81 66.04 467.98 65.90 C 468.85 68.44 468.91 72.46 472.45 72.55 L 472.63 73.75 C 472.67 74.00 472.76 74.50 472.80 74.74 C 473.46 75.81 474.13 76.87 474.83 77.92 C 476.52 77.33 478.22 76.74 479.92 76.15 C 479.76 74.60 479.60 73.05 479.45 71.50 C 480.96 71.59 482.46 71.68 483.97 71.78 C 484.66 70.61 485.35 69.45 486.06 68.29 C 487.38 69.05 488.71 69.80 490.05 70.56 C 491.41 69.74 492.77 68.93 494.14 68.11 C 494.77 69.27 495.41 70.43 496.06 71.60 C 497.57 71.69 499.10 71.80 500.62 71.93 C 500.41 73.84 500.16 75.85 501.12 77.62 C 499.00 76.74 496.74 76.72 494.54 77.21 C 494.32 77.75 493.89 78.82 493.68 79.35 L 493.29 80.33 C 491.16 80.02 488.69 80.51 486.82 79.31 C 484.69 76.59 480.92 76.75 477.97 77.81 C 479.11 78.48 480.26 79.11 481.43 79.72 C 479.54 80.07 477.37 80.75 475.66 79.44 C 475.63 79.42 475.57 79.38 475.53 79.36 C 473.25 77.45 471.22 74.58 467.94 74.60 C 468.75 74.16 469.56 73.71 470.37 73.24 C 468.78 73.05 467.20 72.86 465.62 72.69 C 466.66 72.35 467.72 72.04 468.79 71.76 C 468.24 70.00 467.68 68.25 467.31 66.44 Z" />
<path fill="#836a00" d=" M 11.27 67.40 C 11.37 67.54 11.58 67.81 11.68 67.95 C 11.58 67.81 11.37 67.54 11.27 67.40 Z" />
<path fill="#518836" d=" M 502.14 67.01 C 503.74 66.96 505.34 67.58 506.05 69.12 C 504.42 69.43 502.30 68.98 502.14 67.01 Z" />
<path fill="#836a00" d=" M 11.68 67.95 C 11.84 68.08 12.15 68.36 12.31 68.49 L 11.84 68.55 L 11.68 67.95 Z" />
<path fill="#698e22" d=" M 31.15 68.11 C 33.09 67.07 34.87 68.89 36.60 69.58 C 38.06 68.58 39.65 67.80 41.48 67.96 C 41.71 69.13 41.95 70.30 42.20 71.46 C 44.02 71.25 45.86 71.13 47.70 71.09 C 47.54 72.59 47.37 74.09 47.20 75.59 C 48.21 76.07 49.23 76.54 50.25 77.02 C 49.57 77.00 48.23 76.95 47.56 76.93 L 46.24 76.71 C 45.51 76.29 44.79 75.86 44.07 75.43 C 44.53 74.65 45.47 73.08 45.93 72.29 C 44.93 72.39 42.91 72.58 41.90 72.68 C 41.10 71.42 41.12 68.38 39.09 68.95 C 38.67 69.44 37.82 70.44 37.40 70.94 C 37.19 71.19 36.77 71.69 36.56 71.95 C 35.26 70.89 33.96 69.85 32.65 68.82 C 32.43 69.62 32.00 71.24 31.79 72.04 C 31.58 72.23 31.15 72.60 30.94 72.78 L 30.74 71.88 C 30.80 70.61 30.93 69.35 31.15 68.11 Z" />
<path fill="#78a32f" d=" M 10.51 68.46 C 10.85 68.48 11.51 68.52 11.84 68.55 C 11.88 69.07 11.96 70.11 12.00 70.63 L 11.38 70.92 C 11.16 70.31 10.73 69.08 10.51 68.46 Z" />
<path fill="#755303" d=" M 11.84 68.55 L 12.31 68.49 C 12.71 68.92 13.51 69.77 13.92 70.19 C 13.44 70.30 12.48 70.52 12.00 70.63 C 11.96 70.11 11.88 69.07 11.84 68.55 Z" />
<path fill="#d1b86b" d=" M 32.65 68.82 C 33.96 69.85 35.26 70.89 36.56 71.95 C 36.43 72.77 36.16 74.42 36.03 75.24 C 34.63 74.16 33.23 73.07 31.79 72.04 C 32.00 71.24 32.43 69.62 32.65 68.82 Z" />
<path fill="#8d702a" d=" M 39.09 68.95 C 41.12 68.38 41.10 71.42 41.90 72.68 C 41.12 74.01 40.36 75.36 39.62 76.73 C 41.12 76.38 42.63 76.00 44.07 75.43 C 44.79 75.86 45.51 76.29 46.24 76.71 C 43.92 76.22 41.76 76.95 40.18 78.69 C 42.17 78.87 44.17 79.00 46.17 79.15 C 44.85 80.69 42.79 79.69 41.09 79.70 C 38.30 79.25 35.30 80.80 32.72 79.17 C 32.53 78.55 32.13 77.33 31.94 76.71 C 30.61 76.59 29.29 76.53 27.96 76.52 C 28.17 76.30 28.60 75.86 28.81 75.63 C 30.49 75.56 32.16 75.47 33.84 75.37 C 32.90 74.49 31.93 73.62 30.94 72.78 C 31.15 72.60 31.58 72.23 31.79 72.04 C 33.23 73.07 34.63 74.16 36.03 75.24 C 36.16 74.42 36.43 72.77 36.56 71.95 C 36.77 71.69 37.19 71.19 37.40 70.94 C 37.38 71.92 37.34 73.90 37.32 74.88 C 41.13 75.70 41.69 70.68 39.09 68.95 Z" />
<path fill="#836a00" d=" M 86.74 73.61 C 87.35 71.38 88.47 69.25 90.81 68.46 C 92.66 71.90 97.65 70.78 100.10 73.77 C 100.87 75.87 101.84 77.90 102.90 79.87 C 99.78 80.39 96.62 80.22 93.49 80.16 C 93.51 78.56 93.55 76.96 93.60 75.36 L 93.22 75.15 C 91.31 73.85 88.92 73.96 86.74 73.61 Z" />
<path fill="#aea13c" d=" M 447.74 69.77 C 448.21 69.51 449.14 69.01 449.61 68.75 C 448.64 71.58 447.13 74.26 444.55 75.91 C 445.41 77.18 446.28 78.47 447.22 79.70 C 445.93 80.24 444.88 80.04 444.09 79.09 C 441.76 75.04 436.06 72.18 432.26 76.17 L 431.98 75.13 C 433.52 72.60 436.77 72.82 439.32 72.14 C 440.45 73.29 441.72 74.30 442.97 75.32 C 445.24 74.10 447.06 72.32 447.74 69.77 Z" />
<path fill="#d0bd75" d=" M 37.40 70.94 C 37.82 70.44 38.67 69.44 39.09 68.95 C 41.69 70.68 41.13 75.70 37.32 74.88 C 37.34 73.90 37.38 71.92 37.40 70.94 Z" />
<path fill="#7f6800" d=" M 433.05 71.07 C 434.01 70.44 435.01 69.84 436.02 69.28 C 437.44 69.79 438.24 71.17 439.32 72.14 C 436.77 72.82 433.52 72.60 431.98 75.13 L 432.26 76.17 C 432.64 77.49 433.03 78.82 433.42 80.15 C 430.30 80.21 427.15 80.45 424.07 79.82 C 424.95 77.82 425.68 75.76 426.77 73.86 C 428.53 72.33 430.89 71.82 433.05 71.07 Z" />
<path fill="#ceb277" d=" M 485.78 69.31 C 487.15 69.98 488.42 70.83 489.60 71.80 C 489.50 72.78 489.31 74.74 489.21 75.72 C 488.41 75.56 486.81 75.25 486.00 75.09 C 485.33 73.23 485.76 71.23 485.78 69.31 Z" />
<path fill="#cebb6d" d=" M 489.74 75.66 C 489.50 72.93 491.38 70.93 493.16 69.16 C 496.44 71.61 492.77 75.68 489.74 75.66 Z" />
<path fill="#836a00" d=" M 26.02 71.09 C 27.60 71.33 29.18 71.56 30.74 71.88 L 30.94 72.78 C 29.96 72.63 28.01 72.32 27.03 72.16 C 27.48 73.03 28.37 74.77 28.81 75.63 C 28.60 75.86 28.17 76.30 27.96 76.52 C 27.26 76.62 25.85 76.81 25.15 76.90 C 25.35 77.51 25.76 78.72 25.96 79.33 C 22.38 80.50 19.16 78.13 16.53 76.00 L 16.79 74.50 C 18.53 75.56 20.25 76.63 21.98 77.70 C 23.59 76.90 25.19 76.10 26.80 75.29 C 26.54 73.89 26.28 72.49 26.02 71.09 Z" />
<path fill="#3ab74b" d=" M 1.42 78.07 C 5.25 75.69 9.18 73.47 13.24 71.51 C 13.35 72.22 13.56 73.64 13.67 74.35 C 13.61 76.65 15.27 78.22 16.77 79.72 C 12.06 79.42 7.32 79.80 2.61 79.52 C 2.31 79.16 1.72 78.43 1.42 78.07 Z" />
<path fill="#d9c27a" d=" M 27.03 72.16 C 28.01 72.32 29.96 72.63 30.94 72.78 C 31.93 73.62 32.90 74.49 33.84 75.37 C 32.16 75.47 30.49 75.56 28.81 75.63 C 28.37 74.77 27.48 73.03 27.03 72.16 Z" />
<path fill="#d5bf70" d=" M 41.90 72.68 C 42.91 72.58 44.93 72.39 45.93 72.29 C 45.47 73.08 44.53 74.65 44.07 75.43 C 42.63 76.00 41.12 76.38 39.62 76.73 C 40.36 75.36 41.12 74.01 41.90 72.68 Z" />
<path fill="#948017" d=" M 52.80 72.89 C 54.18 73.10 55.56 73.30 56.92 73.63 C 54.64 75.70 52.35 77.74 49.89 79.59 L 49.20 80.12 C 48.19 79.79 47.18 79.46 46.17 79.15 C 46.52 78.59 47.21 77.48 47.56 76.93 C 48.23 76.95 49.57 77.00 50.25 77.02 C 51.51 76.35 52.74 75.60 53.98 74.87 C 53.68 74.37 53.09 73.38 52.80 72.89 Z" />
<path fill="#98875b" d=" M 454.60 79.46 C 457.87 76.59 461.68 74.49 465.62 72.69 C 467.20 72.86 468.78 73.05 470.37 73.24 C 469.56 73.71 468.75 74.16 467.94 74.60 C 464.41 75.83 461.06 77.47 457.88 79.41 C 456.56 79.89 455.19 80.10 453.77 80.04 L 454.60 79.46 Z" />
<path fill="#ceb277" d=" M 480.00 72.88 C 482.30 72.15 484.75 73.01 486.00 75.09 C 487.11 75.92 487.05 78.38 485.10 77.32 C 482.77 76.72 481.43 74.61 480.00 72.88 Z" />
<path fill="#ceb277" d=" M 492.10 76.36 C 493.18 73.58 496.71 72.51 499.45 72.75 C 498.45 76.01 495.31 77.36 492.10 76.36 Z" />
<path fill="#39b646" d=" M 513.04 73.77 C 513.26 73.57 513.70 73.17 513.92 72.96 C 516.99 74.32 520.33 74.73 523.66 74.90 C 523.63 76.49 523.62 78.08 523.63 79.67 C 519.10 79.56 514.57 79.59 510.05 79.47 C 511.66 77.91 513.05 76.14 513.04 73.77 Z" />
<path fill="#36b94b" d=" M 49.89 79.59 C 52.35 77.74 54.64 75.70 56.92 73.63 C 60.82 75.30 65.47 75.81 68.33 79.28 C 62.20 79.78 56.04 79.50 49.89 79.59 Z" />
<path fill="#beaa2d" d=" M 80.80 74.18 C 82.77 73.95 84.75 73.75 86.74 73.61 C 84.94 75.73 82.99 77.72 81.28 79.91 C 80.99 79.88 80.42 79.83 80.13 79.80 L 79.09 79.72 C 80.11 78.27 81.12 76.81 82.05 75.30 C 81.73 75.02 81.11 74.46 80.80 74.18 Z" />
<path fill="#202026" d=" M 86.74 73.61 C 88.92 73.96 91.31 73.85 93.22 75.15 C 93.79 76.79 93.15 78.52 93.04 80.18 C 89.12 80.33 85.19 80.28 81.28 79.91 C 82.99 77.72 84.94 75.73 86.74 73.61 Z" />
<path fill="#251f25" d=" M 432.26 76.17 C 436.06 72.18 441.76 75.04 444.09 79.09 L 444.62 80.15 C 440.89 80.37 437.15 80.33 433.42 80.15 C 433.03 78.82 432.64 77.49 432.26 76.17 Z" />
<path fill="#33ba4e" d=" M 457.88 79.41 C 461.06 77.47 464.41 75.83 467.94 74.60 C 471.22 74.58 473.25 77.45 475.53 79.36 L 475.62 79.44 C 469.71 79.74 463.79 79.57 457.88 79.41 Z" />
<path fill="#948017" d=" M 449.80 76.61 C 450.92 76.62 452.04 76.62 453.17 76.63 C 453.53 77.34 454.24 78.76 454.60 79.46 L 453.77 80.04 C 452.19 80.11 450.61 80.01 449.05 79.98 C 449.29 78.86 449.54 77.74 449.80 76.61 Z" />
<path fill="#d7bc78" d=" M 25.15 76.90 C 25.85 76.81 27.26 76.62 27.96 76.52 C 29.29 76.53 30.61 76.59 31.94 76.71 C 32.13 77.33 32.53 78.55 32.72 79.17 C 30.47 79.25 28.22 79.25 25.96 79.33 C 25.76 78.72 25.35 77.51 25.15 76.90 Z" />
<path fill="#b99e40" d=" M 35.16 77.30 C 36.10 76.31 38.62 77.46 37.63 78.83 C 36.69 79.84 34.06 78.70 35.16 77.30 Z" />
<path fill="#dbc479" d=" M 40.18 78.69 C 41.76 76.95 43.92 76.22 46.24 76.71 L 47.56 76.93 C 47.21 77.48 46.52 78.59 46.17 79.15 C 44.17 79.00 42.17 78.87 40.18 78.69 Z" />
<path fill="#cdc075" d=" M 477.97 77.81 C 480.92 76.75 484.69 76.59 486.82 79.31 C 485.02 79.54 483.24 79.83 481.43 79.72 C 480.26 79.11 479.11 78.48 477.97 77.81 Z" />
<path fill="#cdc075" d=" M 489.14 77.46 C 490.07 76.53 492.44 77.52 491.57 78.93 C 490.69 80.18 487.98 78.83 489.14 77.46 Z" />
<path fill="#d5c48a" d=" M 494.54 77.21 C 496.74 76.72 499.00 76.74 501.12 77.62 C 500.32 78.32 499.51 79.00 498.69 79.66 C 497.01 79.70 495.34 79.49 493.68 79.35 C 493.89 78.82 494.32 77.75 494.54 77.21 Z" />
<path fill="#755303" d=" M 475.53 79.36 C 475.57 79.38 475.63 79.42 475.66 79.44 L 475.62 79.44 L 475.53 79.36 Z" />
<path fill="#6a8c6b" d=" M 0.00 80.64 C 0.08 80.73 0.25 80.91 0.33 81.00 L 0.00 81.00 L 0.00 80.64 Z" />
</svg>
